<?xml version="1.0" encoding="UTF-8" standalone="no"?>
<!DOCTYPE svg PUBLIC "-//W3C//DTD SVG 1.1//EN"
 "http://www.w3.org/Graphics/SVG/1.1/DTD/svg11.dtd">
<!-- Generated by graphviz version 2.40.1 (20161225.0304)
 -->
<!-- Title: G Pages: 1 -->
<svg width="369pt" height="414pt"
 viewBox="0.00 0.00 369.01 414.00" xmlns="http://www.w3.org/2000/svg" xmlns:xlink="http://www.w3.org/1999/xlink">
<g id="graph0" class="graph" transform="scale(1 1) rotate(0) translate(4 410)">
<title>G</title>
<polygon fill="#ffffff" stroke="transparent" points="-4,4 -4,-410 365.0135,-410 365.0135,4 -4,4"/>
<!-- A0 -->
<g id="node1" class="node">
<title>A0</title>
<polygon fill="#fff8dc" stroke="#000000" points="117.6369,-396 5.7051,-396 5.7051,-360 123.6369,-360 123.6369,-390 117.6369,-396"/>
<polyline fill="none" stroke="#000000" points="117.6369,-396 117.6369,-390 "/>
<polyline fill="none" stroke="#000000" points="123.6369,-390 117.6369,-390 "/>
<text text-anchor="middle" x="64.671" y="-381" font-family="Helvetica,sans-Serif" font-size="10.00" fill="#000000">Backend XSP Miner</text>
<text text-anchor="middle" x="64.671" y="-369" font-family="Helvetica,sans-Serif" font-size="10.00" fill="#000000">Classes</text>
</g>
<!-- A1 -->
<g id="node2" class="node">
<title>A1</title>
<polygon fill="none" stroke="#000000" points="195.671,-396 141.671,-396 141.671,-360 195.671,-360 195.671,-396"/>
<text text-anchor="middle" x="168.671" y="-375" font-family="Helvetica,sans-Serif" font-size="10.00" fill="#000000">User</text>
</g>
<!-- A2 -->
<g id="node3" class="node">
<title>A2</title>
<polygon fill="none" stroke="#000000" points="159.2851,-300 100.0569,-300 100.0569,-264 159.2851,-264 159.2851,-300"/>
<text text-anchor="middle" x="129.671" y="-279" font-family="Helvetica,sans-Serif" font-size="10.00" fill="#000000">Project</text>
</g>
<!-- A1&#45;&gt;A2 -->
<g id="edge1" class="edge">
<title>A1&#45;&gt;A2</title>
<path fill="none" stroke="#000000" d="M156.748,-348.6512C151.6963,-336.2162 145.8412,-321.8035 140.8707,-309.5684"/>
<polygon fill="none" stroke="#000000" points="156.8188,-348.8255 162.783,-352.8788 161.3354,-359.9431 155.3712,-355.8899 156.8188,-348.8255"/>
<polygon fill="#000000" stroke="#000000" points="137.1063,-300.3023 145.0392,-307.8732 138.9882,-304.9346 140.8701,-309.567 140.8701,-309.567 140.8701,-309.567 138.9882,-304.9346 136.701,-311.2607 137.1063,-300.3023 137.1063,-300.3023"/>
<text text-anchor="middle" x="151.7594" y="-310.9143" font-family="Helvetica,sans-Serif" font-size="10.00" fill="#000000">projects 0..*</text>
<text text-anchor="middle" x="146.6823" y="-343.3311" font-family="Helvetica,sans-Serif" font-size="10.00" fill="#000000">1</text>
</g>
<!-- A3 -->
<g id="node4" class="node">
<title>A3</title>
<polygon fill="none" stroke="#000000" points="238.5069,-300 176.8351,-300 176.8351,-264 238.5069,-264 238.5069,-300"/>
<text text-anchor="middle" x="207.671" y="-279" font-family="Helvetica,sans-Serif" font-size="10.00" fill="#000000">Service</text>
</g>
<!-- A1&#45;&gt;A3 -->
<g id="edge2" class="edge">
<title>A1&#45;&gt;A3</title>
<path fill="none" stroke="#000000" d="M180.594,-348.6512C185.6457,-336.2162 191.5008,-321.8035 196.4713,-309.5684"/>
<polygon fill="none" stroke="#000000" points="180.5232,-348.8255 181.9708,-355.8899 176.0066,-359.9431 174.559,-352.8788 180.5232,-348.8255"/>
<polygon fill="#000000" stroke="#000000" points="200.2357,-300.3023 200.641,-311.2607 198.3538,-304.9346 196.4719,-309.567 196.4719,-309.567 196.4719,-309.567 198.3538,-304.9346 192.3028,-307.8732 200.2357,-300.3023 200.2357,-300.3023"/>
<text text-anchor="middle" x="201.2443" y="-317.2768" font-family="Helvetica,sans-Serif" font-size="10.00" fill="#000000">services 0..*</text>
<text text-anchor="middle" x="174.998" y="-336.9686" font-family="Helvetica,sans-Serif" font-size="10.00" fill="#000000">1</text>
</g>
<!-- A4 -->
<g id="node5" class="node">
<title>A4</title>
<polygon fill="none" stroke="#000000" points="195.671,-168 141.671,-168 141.671,-132 195.671,-132 195.671,-168"/>
<text text-anchor="middle" x="168.671" y="-147" font-family="Helvetica,sans-Serif" font-size="10.00" fill="#000000">Task</text>
</g>
<!-- A2&#45;&gt;A4 -->
<g id="edge3" class="edge">
<title>A2&#45;&gt;A4</title>
<path fill="none" stroke="#000000" d="M138.4649,-252.2361C145.0411,-229.9781 153.9716,-199.7518 160.4146,-177.9447"/>
<polygon fill="#000000" stroke="#000000" points="138.4122,-252.4145 140.5482,-259.302 135.012,-263.9227 132.876,-257.0352 138.4122,-252.4145"/>
<polygon fill="#000000" stroke="#000000" points="163.2693,-168.2825 164.7514,-179.1478 161.8526,-173.0776 160.4358,-177.8727 160.4358,-177.8727 160.4358,-177.8727 161.8526,-173.0776 156.1202,-176.5976 163.2693,-168.2825 163.2693,-168.2825"/>
<text text-anchor="middle" x="166.2393" y="-185.0608" font-family="Helvetica,sans-Serif" font-size="10.00" fill="#000000">*</text>
<text text-anchor="middle" x="132.042" y="-241.1445" font-family="Helvetica,sans-Serif" font-size="10.00" fill="#000000">*</text>
</g>
<!-- A5 -->
<g id="node6" class="node">
<title>A5</title>
<polygon fill="none" stroke="#000000" points="123.8962,-168 13.4458,-168 13.4458,-132 123.8962,-132 123.8962,-168"/>
<text text-anchor="middle" x="68.671" y="-147" font-family="Helvetica,sans-Serif" font-size="10.00" fill="#000000">Social XP Delivery</text>
</g>
<!-- A2&#45;&gt;A5 -->
<g id="edge4" class="edge">
<title>A2&#45;&gt;A5</title>
<path fill="none" stroke="#000000" d="M121.3171,-263.9227C111.0169,-241.6337 93.4054,-203.5237 81.4136,-177.5742"/>
<polygon fill="#000000" stroke="#000000" points="77.1197,-168.2825 85.3997,-175.4724 79.2172,-172.8213 81.3147,-177.3601 81.3147,-177.3601 81.3147,-177.3601 79.2172,-172.8213 77.2298,-179.2479 77.1197,-168.2825 77.1197,-168.2825"/>
<text text-anchor="middle" x="92.3963" y="-178.191" font-family="Helvetica,sans-Serif" font-size="10.00" fill="#000000">1</text>
</g>
<!-- A6 -->
<g id="node7" class="node">
<title>A6</title>
<polygon fill="none" stroke="#000000" points="214.671,-182 214.671,-214 305.671,-214 305.671,-182 214.671,-182"/>
<text text-anchor="start" x="242.944" y="-195" font-family="Helvetica,sans-Serif" font-size="10.00" fill="#000000">Product</text>
<polygon fill="none" stroke="#000000" points="214.671,-150 214.671,-182 305.671,-182 305.671,-150 214.671,-150"/>
<text text-anchor="start" x="224.6115" y="-163" font-family="Helvetica,sans-Serif" font-size="10.00" fill="#000000">UNSPSC_Code</text>
<polygon fill="none" stroke="#000000" points="214.671,-118 214.671,-150 305.671,-150 305.671,-118 214.671,-118"/>
<text text-anchor="start" x="246.009" y="-131" font-family="Helvetica,sans-Serif" font-size="10.00" fill="#000000">price()</text>
<polygon fill="none" stroke="#000000" points="214.671,-86 214.671,-118 305.671,-118 305.671,-86 214.671,-86"/>
<text text-anchor="start" x="239.065" y="-99" font-family="Helvetica,sans-Serif" font-size="10.00" fill="#000000">rc_price()</text>
</g>
<!-- A2&#45;&gt;A6 -->
<g id="edge5" class="edge">
<title>A2&#45;&gt;A6</title>
<path fill="none" stroke="#000000" d="M151.011,-263.9105C166.3858,-250.5801 187.3818,-231.7548 204.671,-214 205.4376,-213.2128 206.2064,-212.4168 206.9768,-211.6132"/>
<polygon fill="#000000" stroke="#000000" points="213.929,-204.2071 210.3657,-214.5779 210.5069,-207.8526 207.0848,-211.498 207.0848,-211.498 207.0848,-211.498 210.5069,-207.8526 203.8039,-208.4182 213.929,-204.2071 213.929,-204.2071"/>
<text text-anchor="middle" x="207.6857" y="-220.2077" font-family="Helvetica,sans-Serif" font-size="10.00" fill="#000000">*</text>
<text text-anchor="middle" x="159.1253" y="-242.6305" font-family="Helvetica,sans-Serif" font-size="10.00" fill="#000000">*</text>
</g>
<!-- A3&#45;&gt;A4 -->
<g id="edge6" class="edge">
<title>A3&#45;&gt;A4</title>
<path fill="none" stroke="#000000" d="M202.33,-263.9227C195.7736,-241.7319 184.5839,-203.8591 176.9194,-177.9178"/>
<polygon fill="#000000" stroke="#000000" points="174.0727,-168.2825 181.2218,-176.5976 175.4894,-173.0776 176.9062,-177.8727 176.9062,-177.8727 176.9062,-177.8727 175.4894,-173.0776 172.5906,-179.1478 174.0727,-168.2825 174.0727,-168.2825"/>
<text text-anchor="middle" x="187.3146" y="-180.2709" font-family="Helvetica,sans-Serif" font-size="10.00" fill="#000000">1</text>
</g>
<!-- A3&#45;&gt;A6 -->
<g id="edge7" class="edge">
<title>A3&#45;&gt;A6</title>
<path fill="none" stroke="#000000" d="M214.7923,-263.9227C219.0538,-253.1053 224.7832,-238.5614 230.7205,-223.4898"/>
<polygon fill="#000000" stroke="#000000" points="234.4329,-214.0659 234.9545,-225.0194 232.6003,-218.7179 230.7676,-223.37 230.7676,-223.37 230.7676,-223.37 232.6003,-218.7179 226.5808,-221.7206 234.4329,-214.0659 234.4329,-214.0659"/>
<text text-anchor="middle" x="235.6534" y="-231.0286" font-family="Helvetica,sans-Serif" font-size="10.00" fill="#000000">*</text>
<text text-anchor="middle" x="213.5719" y="-240.96" font-family="Helvetica,sans-Serif" font-size="10.00" fill="#000000">*</text>
</g>
<!-- A8 -->
<g id="node9" class="node">
<title>A8</title>
<polygon fill="none" stroke="#000000" points="61.514,-36 -.172,-36 -.172,0 61.514,0 61.514,-36"/>
<text text-anchor="middle" x="30.671" y="-15" font-family="Helvetica,sans-Serif" font-size="10.00" fill="#000000">Internal</text>
</g>
<!-- A5&#45;&gt;A8 -->
<g id="edge9" class="edge">
<title>A5&#45;&gt;A8</title>
<path fill="none" stroke="#000000" d="M60.6038,-121.9772C53.1597,-96.1187 42.3218,-58.471 35.9342,-36.2825"/>
<polygon fill="none" stroke="#000000" points="57.337,-123.2813 63.4669,-131.9227 64.0638,-121.3447 57.337,-123.2813"/>
</g>
<!-- A9 -->
<g id="node10" class="node">
<title>A9</title>
<polygon fill="none" stroke="#000000" points="134.3965,-36 78.9455,-36 78.9455,0 134.3965,0 134.3965,-36"/>
<text text-anchor="middle" x="106.671" y="-15" font-family="Helvetica,sans-Serif" font-size="10.00" fill="#000000">Public</text>
</g>
<!-- A5&#45;&gt;A9 -->
<g id="edge10" class="edge">
<title>A5&#45;&gt;A9</title>
<path fill="none" stroke="#000000" d="M76.7382,-121.9772C84.1823,-96.1187 95.0202,-58.471 101.4078,-36.2825"/>
<polygon fill="none" stroke="#000000" points="73.2782,-121.3447 73.8751,-131.9227 80.005,-123.2813 73.2782,-121.3447"/>
</g>
<!-- A7 -->
<g id="node8" class="node">
<title>A7</title>
<polygon fill="none" stroke="#000000" points="360.8565,-300 256.4855,-300 256.4855,-264 360.8565,-264 360.8565,-300"/>
<text text-anchor="middle" x="308.671" y="-285" font-family="Helvetica,sans-Serif" font-size="10.00" fill="#000000">Category Interest</text>
<text text-anchor="middle" x="308.671" y="-273" font-family="Helvetica,sans-Serif" font-size="10.00" fill="#000000">Tag</text>
</g>
<!-- A7&#45;&gt;A6 -->
<g id="edge8" class="edge">
<title>A7&#45;&gt;A6</title>
<path fill="none" stroke="#000000" d="M298.3784,-254.273C294.9952,-245.159 291.0596,-234.5571 287.0193,-223.673"/>
<polygon fill="#000000" stroke="#000000" points="301.9605,-263.9227 294.2616,-256.1139 300.2204,-259.2353 298.4804,-254.5478 298.4804,-254.5478 298.4804,-254.5478 300.2204,-259.2353 302.6991,-252.9818 301.9605,-263.9227 301.9605,-263.9227"/>
<polygon fill="#000000" stroke="#000000" points="283.453,-214.0659 291.1519,-221.8748 285.1931,-218.7534 286.9332,-223.4408 286.9332,-223.4408 286.9332,-223.4408 285.1931,-218.7534 282.7145,-225.0069 283.453,-214.0659 283.453,-214.0659"/>
</g>
<!-- A10 -->
<g id="node11" class="node">
<title>A10</title>
<polygon fill="#fff8dc" stroke="#000000" points="326.0141,-406 213.3279,-406 213.3279,-350 332.0141,-350 332.0141,-400 326.0141,-406"/>
<polyline fill="none" stroke="#000000" points="326.0141,-406 326.0141,-400 "/>
<polyline fill="none" stroke="#000000" points="332.0141,-400 326.0141,-400 "/>
<text text-anchor="middle" x="272.671" y="-393" font-family="Helvetica,sans-Serif" font-size="10.00" fill="#000000">Social XP Delivery =</text>
<text text-anchor="middle" x="272.671" y="-381" font-family="Helvetica,sans-Serif" font-size="10.00" fill="#000000">Extreme Social</text>
<text text-anchor="middle" x="272.671" y="-369" font-family="Helvetica,sans-Serif" font-size="10.00" fill="#000000">Programming XSP</text>
<text text-anchor="middle" x="272.671" y="-357" font-family="Helvetica,sans-Serif" font-size="10.00" fill="#000000">rendering</text>
</g>
</g>
</svg>
