<?xml version="1.0" encoding="UTF-8" standalone="no"?>
<!DOCTYPE svg PUBLIC "-//W3C//DTD SVG 1.1//EN"
 "http://www.w3.org/Graphics/SVG/1.1/DTD/svg11.dtd">
<!-- Generated by graphviz version 2.40.1 (20161225.0304)
 -->
<!-- Title: G Pages: 1 -->
<svg width="466pt" height="414pt"
 viewBox="0.00 0.00 465.68 414.00" xmlns="http://www.w3.org/2000/svg" xmlns:xlink="http://www.w3.org/1999/xlink">
<g id="graph0" class="graph" transform="scale(1 1) rotate(0) translate(4 410)">
<title>G</title>
<polygon fill="#ffffff" stroke="transparent" points="-4,4 -4,-410 461.682,-410 461.682,4 -4,4"/>
<!-- A0 -->
<g id="node1" class="node">
<title>A0</title>
<polygon fill="#6aa84f" stroke="#000000" points="78.5191,-400 .1599,-400 .1599,-356 84.5191,-356 84.5191,-394 78.5191,-400"/>
<polyline fill="none" stroke="#000000" points="78.5191,-400 78.5191,-394 "/>
<polyline fill="none" stroke="#000000" points="84.5191,-394 78.5191,-394 "/>
<text text-anchor="middle" x="42.3395" y="-387" font-family="Helvetica,sans-Serif" font-size="10.00" fill="#000000">W3AI </text>
<text text-anchor="middle" x="42.3395" y="-375" font-family="Helvetica,sans-Serif" font-size="10.00" fill="#000000"> The Social</text>
<text text-anchor="middle" x="42.3395" y="-363" font-family="Helvetica,sans-Serif" font-size="10.00" fill="#000000">Capital Bank</text>
</g>
<!-- A1 -->
<g id="node2" class="node">
<title>A1</title>
<polygon fill="#fff8dc" stroke="#000000" points="214.3054,-396 102.3736,-396 102.3736,-360 220.3054,-360 220.3054,-390 214.3054,-396"/>
<polyline fill="none" stroke="#000000" points="214.3054,-396 214.3054,-390 "/>
<polyline fill="none" stroke="#000000" points="220.3054,-390 214.3054,-390 "/>
<text text-anchor="middle" x="161.3395" y="-381" font-family="Helvetica,sans-Serif" font-size="10.00" fill="#000000">Backend XSP Miner</text>
<text text-anchor="middle" x="161.3395" y="-369" font-family="Helvetica,sans-Serif" font-size="10.00" fill="#000000">Classes</text>
</g>
<!-- A2 -->
<g id="node3" class="node">
<title>A2</title>
<polygon fill="none" stroke="#000000" points="292.3395,-396 238.3395,-396 238.3395,-360 292.3395,-360 292.3395,-396"/>
<text text-anchor="middle" x="265.3395" y="-375" font-family="Helvetica,sans-Serif" font-size="10.00" fill="#000000">User</text>
</g>
<!-- A3 -->
<g id="node4" class="node">
<title>A3</title>
<polygon fill="none" stroke="#000000" points="255.9536,-300 196.7254,-300 196.7254,-264 255.9536,-264 255.9536,-300"/>
<text text-anchor="middle" x="226.3395" y="-279" font-family="Helvetica,sans-Serif" font-size="10.00" fill="#000000">Project</text>
</g>
<!-- A2&#45;&gt;A3 -->
<g id="edge1" class="edge">
<title>A2&#45;&gt;A3</title>
<path fill="none" stroke="#000000" d="M253.4165,-348.6512C248.3648,-336.2162 242.5097,-321.8035 237.5392,-309.5684"/>
<polygon fill="none" stroke="#000000" points="253.4873,-348.8255 259.4515,-352.8788 258.0039,-359.9431 252.0397,-355.8899 253.4873,-348.8255"/>
<polygon fill="#000000" stroke="#000000" points="233.7748,-300.3023 241.7077,-307.8732 235.6567,-304.9346 237.5386,-309.567 237.5386,-309.567 237.5386,-309.567 235.6567,-304.9346 233.3695,-311.2607 233.7748,-300.3023 233.7748,-300.3023"/>
<text text-anchor="middle" x="248.4279" y="-310.9143" font-family="Helvetica,sans-Serif" font-size="10.00" fill="#000000">projects 0..*</text>
<text text-anchor="middle" x="243.3508" y="-343.3311" font-family="Helvetica,sans-Serif" font-size="10.00" fill="#000000">1</text>
</g>
<!-- A4 -->
<g id="node5" class="node">
<title>A4</title>
<polygon fill="none" stroke="#000000" points="335.1754,-300 273.5036,-300 273.5036,-264 335.1754,-264 335.1754,-300"/>
<text text-anchor="middle" x="304.3395" y="-279" font-family="Helvetica,sans-Serif" font-size="10.00" fill="#000000">Service</text>
</g>
<!-- A2&#45;&gt;A4 -->
<g id="edge2" class="edge">
<title>A2&#45;&gt;A4</title>
<path fill="none" stroke="#000000" d="M277.2625,-348.6512C282.3142,-336.2162 288.1693,-321.8035 293.1398,-309.5684"/>
<polygon fill="none" stroke="#000000" points="277.1917,-348.8255 278.6393,-355.8899 272.6751,-359.9431 271.2275,-352.8788 277.1917,-348.8255"/>
<polygon fill="#000000" stroke="#000000" points="296.9042,-300.3023 297.3095,-311.2607 295.0223,-304.9346 293.1404,-309.567 293.1404,-309.567 293.1404,-309.567 295.0223,-304.9346 288.9713,-307.8732 296.9042,-300.3023 296.9042,-300.3023"/>
<text text-anchor="middle" x="297.9128" y="-317.2768" font-family="Helvetica,sans-Serif" font-size="10.00" fill="#000000">services 0..*</text>
<text text-anchor="middle" x="271.6665" y="-336.9686" font-family="Helvetica,sans-Serif" font-size="10.00" fill="#000000">1</text>
</g>
<!-- A5 -->
<g id="node6" class="node">
<title>A5</title>
<polygon fill="none" stroke="#000000" points="292.3395,-168 238.3395,-168 238.3395,-132 292.3395,-132 292.3395,-168"/>
<text text-anchor="middle" x="265.3395" y="-147" font-family="Helvetica,sans-Serif" font-size="10.00" fill="#000000">Task</text>
</g>
<!-- A3&#45;&gt;A5 -->
<g id="edge3" class="edge">
<title>A3&#45;&gt;A5</title>
<path fill="none" stroke="#000000" d="M235.1334,-252.2361C241.7096,-229.9781 250.6401,-199.7518 257.0831,-177.9447"/>
<polygon fill="#000000" stroke="#000000" points="235.0807,-252.4145 237.2167,-259.302 231.6805,-263.9227 229.5445,-257.0352 235.0807,-252.4145"/>
<polygon fill="#000000" stroke="#000000" points="259.9378,-168.2825 261.4199,-179.1478 258.5211,-173.0776 257.1043,-177.8727 257.1043,-177.8727 257.1043,-177.8727 258.5211,-173.0776 252.7887,-176.5976 259.9378,-168.2825 259.9378,-168.2825"/>
<text text-anchor="middle" x="262.9078" y="-185.0608" font-family="Helvetica,sans-Serif" font-size="10.00" fill="#000000">*</text>
<text text-anchor="middle" x="228.7105" y="-241.1445" font-family="Helvetica,sans-Serif" font-size="10.00" fill="#000000">*</text>
</g>
<!-- A6 -->
<g id="node7" class="node">
<title>A6</title>
<polygon fill="none" stroke="#000000" points="220.5647,-168 110.1143,-168 110.1143,-132 220.5647,-132 220.5647,-168"/>
<text text-anchor="middle" x="165.3395" y="-147" font-family="Helvetica,sans-Serif" font-size="10.00" fill="#000000">Social XP Delivery</text>
</g>
<!-- A3&#45;&gt;A6 -->
<g id="edge4" class="edge">
<title>A3&#45;&gt;A6</title>
<path fill="none" stroke="#000000" d="M217.9856,-263.9227C207.6854,-241.6337 190.0739,-203.5237 178.0821,-177.5742"/>
<polygon fill="#000000" stroke="#000000" points="173.7882,-168.2825 182.0682,-175.4724 175.8857,-172.8213 177.9832,-177.3601 177.9832,-177.3601 177.9832,-177.3601 175.8857,-172.8213 173.8983,-179.2479 173.7882,-168.2825 173.7882,-168.2825"/>
<text text-anchor="middle" x="189.0648" y="-178.191" font-family="Helvetica,sans-Serif" font-size="10.00" fill="#000000">1</text>
</g>
<!-- A7 -->
<g id="node8" class="node">
<title>A7</title>
<polygon fill="none" stroke="#000000" points="311.3395,-182 311.3395,-214 402.3395,-214 402.3395,-182 311.3395,-182"/>
<text text-anchor="start" x="339.6125" y="-195" font-family="Helvetica,sans-Serif" font-size="10.00" fill="#000000">Product</text>
<polygon fill="none" stroke="#000000" points="311.3395,-150 311.3395,-182 402.3395,-182 402.3395,-150 311.3395,-150"/>
<text text-anchor="start" x="321.28" y="-163" font-family="Helvetica,sans-Serif" font-size="10.00" fill="#000000">UNSPSC_Code</text>
<polygon fill="none" stroke="#000000" points="311.3395,-118 311.3395,-150 402.3395,-150 402.3395,-118 311.3395,-118"/>
<text text-anchor="start" x="342.6775" y="-131" font-family="Helvetica,sans-Serif" font-size="10.00" fill="#000000">price()</text>
<polygon fill="none" stroke="#000000" points="311.3395,-86 311.3395,-118 402.3395,-118 402.3395,-86 311.3395,-86"/>
<text text-anchor="start" x="335.7335" y="-99" font-family="Helvetica,sans-Serif" font-size="10.00" fill="#000000">rc_price()</text>
</g>
<!-- A3&#45;&gt;A7 -->
<g id="edge5" class="edge">
<title>A3&#45;&gt;A7</title>
<path fill="none" stroke="#000000" d="M247.6795,-263.9105C263.0543,-250.5801 284.0503,-231.7548 301.3395,-214 302.1061,-213.2128 302.8749,-212.4168 303.6453,-211.6132"/>
<polygon fill="#000000" stroke="#000000" points="310.5975,-204.2071 307.0342,-214.5779 307.1754,-207.8526 303.7533,-211.498 303.7533,-211.498 303.7533,-211.498 307.1754,-207.8526 300.4724,-208.4182 310.5975,-204.2071 310.5975,-204.2071"/>
<text text-anchor="middle" x="304.3542" y="-220.2077" font-family="Helvetica,sans-Serif" font-size="10.00" fill="#000000">*</text>
<text text-anchor="middle" x="255.7938" y="-242.6305" font-family="Helvetica,sans-Serif" font-size="10.00" fill="#000000">*</text>
</g>
<!-- A4&#45;&gt;A5 -->
<g id="edge6" class="edge">
<title>A4&#45;&gt;A5</title>
<path fill="none" stroke="#000000" d="M298.9985,-263.9227C292.4421,-241.7319 281.2524,-203.8591 273.5879,-177.9178"/>
<polygon fill="#000000" stroke="#000000" points="270.7412,-168.2825 277.8903,-176.5976 272.1579,-173.0776 273.5747,-177.8727 273.5747,-177.8727 273.5747,-177.8727 272.1579,-173.0776 269.2591,-179.1478 270.7412,-168.2825 270.7412,-168.2825"/>
<text text-anchor="middle" x="283.9831" y="-180.2709" font-family="Helvetica,sans-Serif" font-size="10.00" fill="#000000">1</text>
</g>
<!-- A4&#45;&gt;A7 -->
<g id="edge7" class="edge">
<title>A4&#45;&gt;A7</title>
<path fill="none" stroke="#000000" d="M311.4608,-263.9227C315.7223,-253.1053 321.4517,-238.5614 327.389,-223.4898"/>
<polygon fill="#000000" stroke="#000000" points="331.1014,-214.0659 331.623,-225.0194 329.2688,-218.7179 327.4361,-223.37 327.4361,-223.37 327.4361,-223.37 329.2688,-218.7179 323.2493,-221.7206 331.1014,-214.0659 331.1014,-214.0659"/>
<text text-anchor="middle" x="332.3219" y="-231.0286" font-family="Helvetica,sans-Serif" font-size="10.00" fill="#000000">*</text>
<text text-anchor="middle" x="310.2404" y="-240.96" font-family="Helvetica,sans-Serif" font-size="10.00" fill="#000000">*</text>
</g>
<!-- A9 -->
<g id="node10" class="node">
<title>A9</title>
<polygon fill="none" stroke="#000000" points="158.1825,-36 96.4965,-36 96.4965,0 158.1825,0 158.1825,-36"/>
<text text-anchor="middle" x="127.3395" y="-15" font-family="Helvetica,sans-Serif" font-size="10.00" fill="#000000">Internal</text>
</g>
<!-- A6&#45;&gt;A9 -->
<g id="edge9" class="edge">
<title>A6&#45;&gt;A9</title>
<path fill="none" stroke="#000000" d="M157.2723,-121.9772C149.8282,-96.1187 138.9903,-58.471 132.6027,-36.2825"/>
<polygon fill="none" stroke="#000000" points="154.0055,-123.2813 160.1354,-131.9227 160.7323,-121.3447 154.0055,-123.2813"/>
</g>
<!-- A10 -->
<g id="node11" class="node">
<title>A10</title>
<polygon fill="none" stroke="#000000" points="231.065,-36 175.614,-36 175.614,0 231.065,0 231.065,-36"/>
<text text-anchor="middle" x="203.3395" y="-15" font-family="Helvetica,sans-Serif" font-size="10.00" fill="#000000">Public</text>
</g>
<!-- A6&#45;&gt;A10 -->
<g id="edge10" class="edge">
<title>A6&#45;&gt;A10</title>
<path fill="none" stroke="#000000" d="M173.4067,-121.9772C180.8508,-96.1187 191.6887,-58.471 198.0763,-36.2825"/>
<polygon fill="none" stroke="#000000" points="169.9467,-121.3447 170.5436,-131.9227 176.6735,-123.2813 169.9467,-121.3447"/>
</g>
<!-- A8 -->
<g id="node9" class="node">
<title>A8</title>
<polygon fill="none" stroke="#000000" points="457.525,-300 353.154,-300 353.154,-264 457.525,-264 457.525,-300"/>
<text text-anchor="middle" x="405.3395" y="-285" font-family="Helvetica,sans-Serif" font-size="10.00" fill="#000000">Category Interest</text>
<text text-anchor="middle" x="405.3395" y="-273" font-family="Helvetica,sans-Serif" font-size="10.00" fill="#000000">Tag</text>
</g>
<!-- A8&#45;&gt;A7 -->
<g id="edge8" class="edge">
<title>A8&#45;&gt;A7</title>
<path fill="none" stroke="#000000" d="M395.0469,-254.273C391.6637,-245.159 387.7281,-234.5571 383.6878,-223.673"/>
<polygon fill="#000000" stroke="#000000" points="398.629,-263.9227 390.9301,-256.1139 396.8889,-259.2353 395.1489,-254.5478 395.1489,-254.5478 395.1489,-254.5478 396.8889,-259.2353 399.3676,-252.9818 398.629,-263.9227 398.629,-263.9227"/>
<polygon fill="#000000" stroke="#000000" points="380.1215,-214.0659 387.8204,-221.8748 381.8616,-218.7534 383.6017,-223.4408 383.6017,-223.4408 383.6017,-223.4408 381.8616,-218.7534 379.383,-225.0069 380.1215,-214.0659 380.1215,-214.0659"/>
</g>
<!-- A11 -->
<g id="node12" class="node">
<title>A11</title>
<polygon fill="#fff8dc" stroke="#000000" points="422.6826,-406 309.9964,-406 309.9964,-350 428.6826,-350 428.6826,-400 422.6826,-406"/>
<polyline fill="none" stroke="#000000" points="422.6826,-406 422.6826,-400 "/>
<polyline fill="none" stroke="#000000" points="428.6826,-400 422.6826,-400 "/>
<text text-anchor="middle" x="369.3395" y="-393" font-family="Helvetica,sans-Serif" font-size="10.00" fill="#000000">Social XP Delivery =</text>
<text text-anchor="middle" x="369.3395" y="-381" font-family="Helvetica,sans-Serif" font-size="10.00" fill="#000000">Extreme Social</text>
<text text-anchor="middle" x="369.3395" y="-369" font-family="Helvetica,sans-Serif" font-size="10.00" fill="#000000">Programming XSP</text>
<text text-anchor="middle" x="369.3395" y="-357" font-family="Helvetica,sans-Serif" font-size="10.00" fill="#000000">rendering</text>
</g>
</g>
</svg>
