<?xml version="1.0" encoding="UTF-8" standalone="no"?>
<!DOCTYPE svg PUBLIC "-//W3C//DTD SVG 1.1//EN"
 "http://www.w3.org/Graphics/SVG/1.1/DTD/svg11.dtd">
<!-- Generated by graphviz version 2.40.1 (20161225.0304)
 -->
<!-- Title: G Pages: 1 -->
<svg width="500pt" height="434pt"
 viewBox="0.00 0.00 499.74 434.00" xmlns="http://www.w3.org/2000/svg" xmlns:xlink="http://www.w3.org/1999/xlink">
<g id="graph0" class="graph" transform="scale(1 1) rotate(0) translate(4 430)">
<title>G</title>
<polygon fill="#ffffff" stroke="transparent" points="-4,4 -4,-430 495.743,-430 495.743,4 -4,4"/>
<!-- A0 -->
<g id="node1" class="node">
<title>A0</title>
<polygon fill="#6aa84f" stroke="#000000" points="79.3588,-420 -.1198,-420 -.1198,-376 85.3588,-376 85.3588,-414 79.3588,-420"/>
<polyline fill="none" stroke="#000000" points="79.3588,-420 79.3588,-414 "/>
<polyline fill="none" stroke="#000000" points="85.3588,-414 79.3588,-414 "/>
<text text-anchor="middle" x="42.6195" y="-407" font-family="Helvetica,sans-Serif" font-size="10.00" fill="#000000">W3AI </text>
<text text-anchor="middle" x="42.6195" y="-395" font-family="Helvetica,sans-Serif" font-size="10.00" fill="#000000"> Open Social</text>
<text text-anchor="middle" x="42.6195" y="-383" font-family="Helvetica,sans-Serif" font-size="10.00" fill="#000000">Capital Bank</text>
</g>
<!-- A1 -->
<g id="node2" class="node">
<title>A1</title>
<polygon fill="#fff8dc" stroke="#000000" points="199.5245,-420 103.7145,-420 103.7145,-376 205.5245,-376 205.5245,-414 199.5245,-420"/>
<polyline fill="none" stroke="#000000" points="199.5245,-420 199.5245,-414 "/>
<polyline fill="none" stroke="#000000" points="205.5245,-414 199.5245,-414 "/>
<text text-anchor="middle" x="154.6195" y="-407" font-family="Helvetica,sans-Serif" font-size="10.00" fill="#000000">Backend XSP</text>
<text text-anchor="middle" x="154.6195" y="-395" font-family="Helvetica,sans-Serif" font-size="10.00" fill="#000000">Innovation Miner</text>
<text text-anchor="middle" x="154.6195" y="-383" font-family="Helvetica,sans-Serif" font-size="10.00" fill="#000000">Classes</text>
</g>
<!-- A2 -->
<g id="node3" class="node">
<title>A2</title>
<polygon fill="none" stroke="#000000" points="277.6195,-416 223.6195,-416 223.6195,-380 277.6195,-380 277.6195,-416"/>
<text text-anchor="middle" x="250.6195" y="-395" font-family="Helvetica,sans-Serif" font-size="10.00" fill="#000000">User</text>
</g>
<!-- A3 -->
<g id="node4" class="node">
<title>A3</title>
<polygon fill="none" stroke="#000000" points="241.2336,-320 182.0054,-320 182.0054,-284 241.2336,-284 241.2336,-320"/>
<text text-anchor="middle" x="211.6195" y="-299" font-family="Helvetica,sans-Serif" font-size="10.00" fill="#000000">Project</text>
</g>
<!-- A2&#45;&gt;A3 -->
<g id="edge1" class="edge">
<title>A2&#45;&gt;A3</title>
<path fill="none" stroke="#000000" d="M238.6965,-368.6512C233.6448,-356.2162 227.7897,-341.8035 222.8192,-329.5684"/>
<polygon fill="none" stroke="#000000" points="238.7673,-368.8255 244.7315,-372.8788 243.2839,-379.9431 237.3197,-375.8899 238.7673,-368.8255"/>
<polygon fill="#000000" stroke="#000000" points="219.0548,-320.3023 226.9877,-327.8732 220.9367,-324.9346 222.8186,-329.567 222.8186,-329.567 222.8186,-329.567 220.9367,-324.9346 218.6495,-331.2607 219.0548,-320.3023 219.0548,-320.3023"/>
<text text-anchor="middle" x="233.7079" y="-330.9143" font-family="Helvetica,sans-Serif" font-size="10.00" fill="#000000">projects 0..*</text>
<text text-anchor="middle" x="228.6308" y="-363.3311" font-family="Helvetica,sans-Serif" font-size="10.00" fill="#000000">1</text>
</g>
<!-- A4 -->
<g id="node5" class="node">
<title>A4</title>
<polygon fill="none" stroke="#000000" points="320.4554,-320 258.7836,-320 258.7836,-284 320.4554,-284 320.4554,-320"/>
<text text-anchor="middle" x="289.6195" y="-299" font-family="Helvetica,sans-Serif" font-size="10.00" fill="#000000">Service</text>
</g>
<!-- A2&#45;&gt;A4 -->
<g id="edge2" class="edge">
<title>A2&#45;&gt;A4</title>
<path fill="none" stroke="#000000" d="M262.5425,-368.6512C267.5942,-356.2162 273.4493,-341.8035 278.4198,-329.5684"/>
<polygon fill="none" stroke="#000000" points="262.4717,-368.8255 263.9193,-375.8899 257.9551,-379.9431 256.5075,-372.8788 262.4717,-368.8255"/>
<polygon fill="#000000" stroke="#000000" points="282.1842,-320.3023 282.5895,-331.2607 280.3023,-324.9346 278.4204,-329.567 278.4204,-329.567 278.4204,-329.567 280.3023,-324.9346 274.2513,-327.8732 282.1842,-320.3023 282.1842,-320.3023"/>
<text text-anchor="middle" x="283.1928" y="-337.2768" font-family="Helvetica,sans-Serif" font-size="10.00" fill="#000000">services 0..*</text>
<text text-anchor="middle" x="256.9465" y="-356.9686" font-family="Helvetica,sans-Serif" font-size="10.00" fill="#000000">1</text>
</g>
<!-- A5 -->
<g id="node6" class="node">
<title>A5</title>
<polygon fill="none" stroke="#000000" points="238.6195,-188 184.6195,-188 184.6195,-152 238.6195,-152 238.6195,-188"/>
<text text-anchor="middle" x="211.6195" y="-167" font-family="Helvetica,sans-Serif" font-size="10.00" fill="#000000">Task</text>
</g>
<!-- A3&#45;&gt;A5 -->
<g id="edge3" class="edge">
<title>A3&#45;&gt;A5</title>
<path fill="none" stroke="#000000" d="M211.6195,-271.8839C211.6195,-249.8452 211.6195,-220.1367 211.6195,-198.4887"/>
<polygon fill="#000000" stroke="#000000" points="211.6196,-271.9227 215.6195,-277.9228 211.6195,-283.9227 207.6195,-277.9227 211.6196,-271.9227"/>
<polygon fill="#000000" stroke="#000000" points="211.6195,-188.2825 216.1196,-198.2825 211.6195,-193.2825 211.6196,-198.2825 211.6196,-198.2825 211.6196,-198.2825 211.6195,-193.2825 207.1196,-198.2826 211.6195,-188.2825 211.6195,-188.2825"/>
<text text-anchor="middle" x="220.0719" y="-203.4087" font-family="Helvetica,sans-Serif" font-size="10.00" fill="#000000">*</text>
<text text-anchor="middle" x="203.1671" y="-262.7966" font-family="Helvetica,sans-Serif" font-size="10.00" fill="#000000">*</text>
</g>
<!-- A6 -->
<g id="node7" class="node">
<title>A6</title>
<polygon fill="none" stroke="#000000" points="166.8447,-188 56.3943,-188 56.3943,-152 166.8447,-152 166.8447,-188"/>
<text text-anchor="middle" x="111.6195" y="-167" font-family="Helvetica,sans-Serif" font-size="10.00" fill="#000000">Social XP Delivery</text>
</g>
<!-- A3&#45;&gt;A6 -->
<g id="edge4" class="edge">
<title>A3&#45;&gt;A6</title>
<path fill="none" stroke="#000000" d="M197.9246,-283.9227C180.8158,-261.3391 151.4025,-222.5136 131.7345,-196.5518"/>
<polygon fill="#000000" stroke="#000000" points="125.4699,-188.2825 135.0954,-193.5361 128.4892,-192.268 131.5085,-196.2535 131.5085,-196.2535 131.5085,-196.2535 128.4892,-192.268 127.9216,-198.9708 125.4699,-188.2825 125.4699,-188.2825"/>
<text text-anchor="middle" x="143.1528" y="-194.6267" font-family="Helvetica,sans-Serif" font-size="10.00" fill="#000000">1</text>
</g>
<!-- A7 -->
<g id="node8" class="node">
<title>A7</title>
<polygon fill="none" stroke="#000000" points="257.6195,-202 257.6195,-234 348.6195,-234 348.6195,-202 257.6195,-202"/>
<text text-anchor="start" x="285.8925" y="-215" font-family="Helvetica,sans-Serif" font-size="10.00" fill="#000000">Product</text>
<polygon fill="none" stroke="#000000" points="257.6195,-170 257.6195,-202 348.6195,-202 348.6195,-170 257.6195,-170"/>
<text text-anchor="start" x="267.56" y="-183" font-family="Helvetica,sans-Serif" font-size="10.00" fill="#000000">UNSPSC_Code</text>
<polygon fill="none" stroke="#000000" points="257.6195,-138 257.6195,-170 348.6195,-170 348.6195,-138 257.6195,-138"/>
<text text-anchor="start" x="288.9575" y="-151" font-family="Helvetica,sans-Serif" font-size="10.00" fill="#000000">price()</text>
<polygon fill="none" stroke="#000000" points="257.6195,-106 257.6195,-138 348.6195,-138 348.6195,-106 257.6195,-106"/>
<text text-anchor="start" x="282.0135" y="-119" font-family="Helvetica,sans-Serif" font-size="10.00" fill="#000000">rc_price()</text>
</g>
<!-- A3&#45;&gt;A7 -->
<g id="edge5" class="edge">
<title>A3&#45;&gt;A7</title>
<path fill="none" stroke="#000000" d="M224.0819,-283.9227C231.68,-272.9012 241.945,-258.0113 252.5446,-242.6361"/>
<polygon fill="#000000" stroke="#000000" points="258.4529,-234.0659 256.4819,-244.8532 255.6149,-238.1825 252.7769,-242.299 252.7769,-242.299 252.7769,-242.299 255.6149,-238.1825 249.072,-239.7449 258.4529,-234.0659 258.4529,-234.0659"/>
<text text-anchor="middle" x="255.1236" y="-250.7869" font-family="Helvetica,sans-Serif" font-size="10.00" fill="#000000">*</text>
<text text-anchor="middle" x="227.4111" y="-261.2018" font-family="Helvetica,sans-Serif" font-size="10.00" fill="#000000">*</text>
</g>
<!-- A4&#45;&gt;A5 -->
<g id="edge6" class="edge">
<title>A4&#45;&gt;A5</title>
<path fill="none" stroke="#000000" d="M278.1857,-283.9396C269.6231,-270.3066 257.6991,-251.0917 247.6195,-234 240.5365,-221.9896 232.9344,-208.5594 226.5498,-197.1151"/>
<polygon fill="#000000" stroke="#000000" points="221.5111,-188.0437 230.3007,-194.6006 223.939,-192.4147 226.3668,-196.7857 226.3668,-196.7857 226.3668,-196.7857 223.939,-192.4147 222.4329,-198.9708 221.5111,-188.0437 221.5111,-188.0437"/>
<text text-anchor="middle" x="237.7016" y="-196.7854" font-family="Helvetica,sans-Serif" font-size="10.00" fill="#000000">1</text>
</g>
<!-- A4&#45;&gt;A7 -->
<g id="edge7" class="edge">
<title>A4&#45;&gt;A7</title>
<path fill="none" stroke="#000000" d="M291.3998,-283.9227C292.4451,-273.3094 293.8436,-259.1089 295.2979,-244.3423"/>
<polygon fill="#000000" stroke="#000000" points="296.31,-234.0659 299.8081,-244.4588 295.8199,-239.0418 295.3298,-244.0178 295.3298,-244.0178 295.3298,-244.0178 295.8199,-239.0418 290.8515,-243.5767 296.31,-234.0659 296.31,-234.0659"/>
<text text-anchor="middle" x="302.9451" y="-249.9332" font-family="Helvetica,sans-Serif" font-size="10.00" fill="#000000">*</text>
<text text-anchor="middle" x="284.7647" y="-262.0554" font-family="Helvetica,sans-Serif" font-size="10.00" fill="#000000">*</text>
</g>
<!-- A11 -->
<g id="node12" class="node">
<title>A11</title>
<polygon fill="none" stroke="#000000" points="104.4625,-46 42.7765,-46 42.7765,-10 104.4625,-10 104.4625,-46"/>
<text text-anchor="middle" x="73.6195" y="-25" font-family="Helvetica,sans-Serif" font-size="10.00" fill="#000000">Internal</text>
</g>
<!-- A6&#45;&gt;A11 -->
<g id="edge11" class="edge">
<title>A6&#45;&gt;A11</title>
<path fill="none" stroke="#000000" d="M104.1237,-141.9894C96.5218,-113.5823 84.9795,-70.4505 78.4908,-46.2032"/>
<polygon fill="none" stroke="#000000" points="100.7633,-142.9714 106.7295,-151.7267 107.5253,-141.1618 100.7633,-142.9714"/>
</g>
<!-- A12 -->
<g id="node13" class="node">
<title>A12</title>
<polygon fill="none" stroke="#000000" points="177.345,-46 121.894,-46 121.894,-10 177.345,-10 177.345,-46"/>
<text text-anchor="middle" x="149.6195" y="-25" font-family="Helvetica,sans-Serif" font-size="10.00" fill="#000000">Public</text>
</g>
<!-- A6&#45;&gt;A12 -->
<g id="edge12" class="edge">
<title>A6&#45;&gt;A12</title>
<path fill="none" stroke="#000000" d="M119.1153,-141.9894C126.7172,-113.5823 138.2595,-70.4505 144.7482,-46.2032"/>
<polygon fill="none" stroke="#000000" points="115.7137,-141.1618 116.5095,-151.7267 122.4757,-142.9714 115.7137,-141.1618"/>
</g>
<!-- A8 -->
<g id="node9" class="node">
<title>A8</title>
<polygon fill="none" stroke="#000000" points="457.805,-320 353.434,-320 353.434,-284 457.805,-284 457.805,-320"/>
<text text-anchor="middle" x="405.6195" y="-305" font-family="Helvetica,sans-Serif" font-size="10.00" fill="#000000">Category Interest</text>
<text text-anchor="middle" x="405.6195" y="-293" font-family="Helvetica,sans-Serif" font-size="10.00" fill="#000000">Tag</text>
</g>
<!-- A8&#45;&gt;A7 -->
<g id="edge8" class="edge">
<title>A8&#45;&gt;A7</title>
<path fill="none" stroke="#000000" d="M385.2914,-275.9484C376.4043,-264.5592 365.5319,-250.6256 354.629,-236.653"/>
<polygon fill="#000000" stroke="#000000" points="391.5138,-283.9227 381.8142,-278.8072 388.4378,-279.9808 385.3619,-276.0389 385.3619,-276.0389 385.3619,-276.0389 388.4378,-279.9808 388.9097,-273.2705 391.5138,-283.9227 391.5138,-283.9227"/>
<polygon fill="#000000" stroke="#000000" points="348.2208,-228.4405 357.9204,-233.5561 351.2967,-232.3825 354.3727,-236.3244 354.3727,-236.3244 354.3727,-236.3244 351.2967,-232.3825 350.8249,-239.0927 348.2208,-228.4405 348.2208,-228.4405"/>
</g>
<!-- A9 -->
<g id="node10" class="node">
<title>A9</title>
<polygon fill="none" stroke="#000000" points="477.456,-198 365.783,-198 365.783,-142 477.456,-142 477.456,-198"/>
<text text-anchor="middle" x="421.6195" y="-185" font-family="Helvetica,sans-Serif" font-size="10.00" fill="#000000">Miner</text>
<text text-anchor="middle" x="421.6195" y="-173" font-family="Helvetica,sans-Serif" font-size="10.00" fill="#000000">Proof of</text>
<text text-anchor="middle" x="421.6195" y="-161" font-family="Helvetica,sans-Serif" font-size="10.00" fill="#000000">Work/Performance</text>
<text text-anchor="middle" x="421.6195" y="-149" font-family="Helvetica,sans-Serif" font-size="10.00" fill="#000000">Project Tests</text>
</g>
<!-- A8&#45;&gt;A9 -->
<g id="edge9" class="edge">
<title>A8&#45;&gt;A9</title>
<path fill="none" stroke="#000000" d="M409.0392,-273.7872C411.3421,-254.7887 414.4085,-229.4907 416.9374,-208.6275"/>
<polygon fill="#000000" stroke="#000000" points="407.8107,-283.9227 404.5468,-273.4539 408.4124,-278.9591 409.0141,-273.9954 409.0141,-273.9954 409.0141,-273.9954 408.4124,-278.9591 413.4814,-274.5369 407.8107,-283.9227 407.8107,-283.9227"/>
<polygon fill="#000000" stroke="#000000" points="418.1668,-198.4846 421.4307,-208.9535 417.5651,-203.4483 416.9634,-208.4119 416.9634,-208.4119 416.9634,-208.4119 417.5651,-203.4483 412.4961,-207.8704 418.1668,-198.4846 418.1668,-198.4846"/>
</g>
<!-- A10 -->
<g id="node11" class="node">
<title>A10</title>
<polygon fill="none" stroke="#000000" points="491.8667,-56 351.3723,-56 351.3723,0 491.8667,0 491.8667,-56"/>
<text text-anchor="middle" x="421.6195" y="-43" font-family="Helvetica,sans-Serif" font-size="10.00" fill="#000000">Ranked Innovations</text>
<text text-anchor="middle" x="421.6195" y="-19" font-family="Helvetica,sans-Serif" font-size="10.00" fill="#000000">Global&#45;National&#45;Social</text>
<text text-anchor="middle" x="421.6195" y="-7" font-family="Helvetica,sans-Serif" font-size="10.00" fill="#000000">Realtime Patenting Pools</text>
</g>
<!-- A9&#45;&gt;A10 -->
<g id="edge10" class="edge">
<title>A9&#45;&gt;A10</title>
<path fill="none" stroke="#000000" d="M421.6195,-131.873C421.6195,-111.6694 421.6195,-86.9087 421.6195,-66.6302"/>
<polygon fill="#000000" stroke="#000000" points="421.6195,-141.9454 417.1196,-131.9453 421.6195,-136.9454 421.6196,-131.9454 421.6196,-131.9454 421.6196,-131.9454 421.6195,-136.9454 426.1196,-131.9454 421.6195,-141.9454 421.6195,-141.9454"/>
<polygon fill="#000000" stroke="#000000" points="421.6195,-56.4824 426.1196,-66.4823 421.6195,-61.4824 421.6196,-66.4824 421.6196,-66.4824 421.6196,-66.4824 421.6195,-61.4824 417.1196,-66.4824 421.6195,-56.4824 421.6195,-56.4824"/>
</g>
<!-- A13 -->
<g id="node14" class="node">
<title>A13</title>
<polygon fill="#fff8dc" stroke="#000000" points="463.191,-426 296.048,-426 296.048,-370 469.191,-370 469.191,-420 463.191,-426"/>
<polyline fill="none" stroke="#000000" points="463.191,-426 463.191,-420 "/>
<polyline fill="none" stroke="#000000" points="469.191,-420 463.191,-420 "/>
<text text-anchor="middle" x="382.6195" y="-413" font-family="Helvetica,sans-Serif" font-size="10.00" fill="#000000">Social XP Delivery =</text>
<text text-anchor="middle" x="382.6195" y="-401" font-family="Helvetica,sans-Serif" font-size="10.00" fill="#000000">Extreme Social</text>
<text text-anchor="middle" x="382.6195" y="-389" font-family="Helvetica,sans-Serif" font-size="10.00" fill="#000000">Programming/Engineering (XSP)</text>
<text text-anchor="middle" x="382.6195" y="-377" font-family="Helvetica,sans-Serif" font-size="10.00" fill="#000000">Innovation Rendering</text>
</g>
</g>
</svg>
