<?xml version="1.0" encoding="UTF-8" standalone="no"?>
<!DOCTYPE svg PUBLIC "-//W3C//DTD SVG 1.1//EN"
 "http://www.w3.org/Graphics/SVG/1.1/DTD/svg11.dtd">
<!-- Generated by graphviz version 2.40.1 (20161225.0304)
 -->
<!-- Title: G Pages: 1 -->
<svg width="418pt" height="482pt"
 viewBox="0.00 0.00 417.52 482.00" xmlns="http://www.w3.org/2000/svg" xmlns:xlink="http://www.w3.org/1999/xlink">
<g id="graph0" class="graph" transform="scale(1 1) rotate(0) translate(4 478)">
<title>G</title>
<polygon fill="#ffffff" stroke="transparent" points="-4,4 -4,-478 413.52,-478 413.52,4 -4,4"/>
<!-- A0 -->
<g id="node1" class="node">
<title>A0</title>
<polygon fill="#6aa84f" stroke="#000000" points="95.8575,-474 .0475,-474 .0475,-438 101.8575,-438 101.8575,-468 95.8575,-474"/>
<polyline fill="none" stroke="#000000" points="95.8575,-474 95.8575,-468 "/>
<polyline fill="none" stroke="#000000" points="101.8575,-468 95.8575,-468 "/>
<text text-anchor="middle" x="50.9525" y="-459" font-family="Helvetica,sans-Serif" font-size="10.00" fill="#000000">Innovation Miner</text>
<text text-anchor="middle" x="50.9525" y="-447" font-family="Helvetica,sans-Serif" font-size="10.00" fill="#000000">Classes</text>
</g>
<!-- A1 -->
<g id="node2" class="node">
<title>A1</title>
<polygon fill="#fff8dc" stroke="#000000" points="214.2297,-474 119.6753,-474 119.6753,-438 220.2297,-438 220.2297,-468 214.2297,-474"/>
<polyline fill="none" stroke="#000000" points="214.2297,-474 214.2297,-468 "/>
<polyline fill="none" stroke="#000000" points="220.2297,-468 214.2297,-468 "/>
<text text-anchor="middle" x="169.9525" y="-459" font-family="Helvetica,sans-Serif" font-size="10.00" fill="#000000">Agile PMO&#45;COE</text>
<text text-anchor="middle" x="169.9525" y="-447" font-family="Helvetica,sans-Serif" font-size="10.00" fill="#000000">XSP&#45;Server</text>
</g>
<!-- A2 -->
<g id="node3" class="node">
<title>A2</title>
<polygon fill="none" stroke="#000000" points="343.138,-474 238.767,-474 238.767,-438 343.138,-438 343.138,-474"/>
<text text-anchor="middle" x="290.9525" y="-453" font-family="Helvetica,sans-Serif" font-size="10.00" fill="#000000">Innovation_Miner</text>
</g>
<!-- A3 -->
<g id="node4" class="node">
<title>A3</title>
<polygon fill="none" stroke="#000000" points="288.4685,-388 175.4365,-388 175.4365,-352 288.4685,-352 288.4685,-388"/>
<text text-anchor="middle" x="231.9525" y="-373" font-family="Helvetica,sans-Serif" font-size="10.00" fill="#000000">Project_Blockchain</text>
<text text-anchor="middle" x="231.9525" y="-361" font-family="Helvetica,sans-Serif" font-size="10.00" fill="#000000">(Job_Blockchain)</text>
</g>
<!-- A2&#45;&gt;A3 -->
<g id="edge1" class="edge">
<title>A2&#45;&gt;A3</title>
<path fill="none" stroke="#000000" d="M271.6498,-427.8639C264.7348,-417.7844 256.9673,-406.4623 250.1491,-396.5238"/>
<polygon fill="none" stroke="#000000" points="271.6515,-427.8664 278.3442,-430.5511 278.4401,-437.7616 271.7474,-435.0769 271.6515,-427.8664"/>
<polygon fill="#000000" stroke="#000000" points="244.4468,-388.2121 253.8147,-393.9124 247.2754,-392.3351 250.104,-396.4581 250.104,-396.4581 250.104,-396.4581 247.2754,-392.3351 246.3933,-399.0039 244.4468,-388.2121 244.4468,-388.2121"/>
<text text-anchor="middle" x="261.6709" y="-395.3773" font-family="Helvetica,sans-Serif" font-size="10.00" fill="#000000">projects 0..*</text>
<text text-anchor="middle" x="261.2161" y="-424.5964" font-family="Helvetica,sans-Serif" font-size="10.00" fill="#000000">1</text>
</g>
<!-- A4 -->
<g id="node5" class="node">
<title>A4</title>
<polygon fill="none" stroke="#000000" points="393.9037,-388 306.0013,-388 306.0013,-352 393.9037,-352 393.9037,-388"/>
<text text-anchor="middle" x="349.9525" y="-373" font-family="Helvetica,sans-Serif" font-size="10.00" fill="#000000">Service_Coin</text>
<text text-anchor="middle" x="349.9525" y="-361" font-family="Helvetica,sans-Serif" font-size="10.00" fill="#000000">(Skill_Coin)</text>
</g>
<!-- A2&#45;&gt;A4 -->
<g id="edge2" class="edge">
<title>A2&#45;&gt;A4</title>
<path fill="none" stroke="#000000" d="M310.2552,-427.8639C317.1702,-417.7844 324.9377,-406.4623 331.7559,-396.5238"/>
<polygon fill="none" stroke="#000000" points="310.2535,-427.8664 310.1576,-435.0769 303.4649,-437.7616 303.5608,-430.5511 310.2535,-427.8664"/>
<polygon fill="#000000" stroke="#000000" points="337.4582,-388.2121 335.5117,-399.0039 334.6296,-392.3351 331.801,-396.4581 331.801,-396.4581 331.801,-396.4581 334.6296,-392.3351 328.0903,-393.9124 337.4582,-388.2121 337.4582,-388.2121"/>
<text text-anchor="middle" x="334.1738" y="-404.9406" font-family="Helvetica,sans-Serif" font-size="10.00" fill="#000000">services 0..*</text>
<text text-anchor="middle" x="306.7493" y="-415.0331" font-family="Helvetica,sans-Serif" font-size="10.00" fill="#000000">1</text>
</g>
<!-- A5 -->
<g id="node6" class="node">
<title>A5</title>
<polygon fill="none" stroke="#000000" points="278.0726,-302 193.8324,-302 193.8324,-266 278.0726,-266 278.0726,-302"/>
<text text-anchor="middle" x="235.9525" y="-281" font-family="Helvetica,sans-Serif" font-size="10.00" fill="#000000">Sprint_Block</text>
</g>
<!-- A3&#45;&gt;A5 -->
<g id="edge3" class="edge">
<title>A3&#45;&gt;A5</title>
<path fill="none" stroke="#000000" d="M233.3702,-339.5205C233.7825,-330.6543 234.2311,-321.01 234.6369,-312.2849"/>
<polygon fill="#000000" stroke="#000000" points="233.3584,-339.7746 237.0753,-345.954 232.8008,-351.7616 229.0839,-345.5822 233.3584,-339.7746"/>
<polygon fill="#000000" stroke="#000000" points="235.1054,-302.2121 239.1359,-312.4104 234.8731,-307.2067 234.6407,-312.2013 234.6407,-312.2013 234.6407,-312.2013 234.8731,-307.2067 230.1456,-311.9922 235.1054,-302.2121 235.1054,-302.2121"/>
<text text-anchor="middle" x="242.7065" y="-317.7114" font-family="Helvetica,sans-Serif" font-size="10.00" fill="#000000">*</text>
<text text-anchor="middle" x="225.1997" y="-330.2623" font-family="Helvetica,sans-Serif" font-size="10.00" fill="#000000">*</text>
</g>
<!-- A7 -->
<g id="node8" class="node">
<title>A7</title>
<polygon fill="none" stroke="#000000" points="395.9595,-302 297.9455,-302 297.9455,-266 395.9595,-266 395.9595,-302"/>
<text text-anchor="middle" x="346.9525" y="-281" font-family="Helvetica,sans-Serif" font-size="10.00" fill="#000000">Smart_Contract</text>
</g>
<!-- A4&#45;&gt;A7 -->
<g id="edge5" class="edge">
<title>A4&#45;&gt;A7</title>
<path fill="none" stroke="#000000" d="M348.8893,-339.5205C348.58,-330.6543 348.2435,-321.01 347.9392,-312.2849"/>
<polygon fill="#000000" stroke="#000000" points="348.8978,-339.7689 353.1046,-345.6258 349.3163,-351.7616 345.1095,-345.9047 348.8978,-339.7689"/>
<polygon fill="#000000" stroke="#000000" points="347.5878,-302.2121 352.4338,-312.0491 347.7622,-307.2091 347.9365,-312.206 347.9365,-312.206 347.9365,-312.206 347.7622,-307.2091 343.4393,-312.3629 347.5878,-302.2121 347.5878,-302.2121"/>
<text text-anchor="middle" x="356.667" y="-317.0326" font-family="Helvetica,sans-Serif" font-size="10.00" fill="#000000">*</text>
<text text-anchor="middle" x="340.2371" y="-330.9411" font-family="Helvetica,sans-Serif" font-size="10.00" fill="#000000">*</text>
</g>
<!-- A6 -->
<g id="node7" class="node">
<title>A6</title>
<polygon fill="none" stroke="#000000" points="343.9115,-216 235.9935,-216 235.9935,-180 343.9115,-180 343.9115,-216"/>
<text text-anchor="middle" x="289.9525" y="-195" font-family="Helvetica,sans-Serif" font-size="10.00" fill="#000000">Task_Transaction</text>
</g>
<!-- A5&#45;&gt;A6 -->
<g id="edge4" class="edge">
<title>A5&#45;&gt;A6</title>
<path fill="none" stroke="#000000" d="M253.8628,-255.4762C260.0852,-245.5665 267.0367,-234.4956 273.165,-224.7357"/>
<polygon fill="#000000" stroke="#000000" points="253.7858,-255.5989 253.9827,-262.8074 247.4045,-265.7616 247.2076,-258.5532 253.7858,-255.5989"/>
<polygon fill="#000000" stroke="#000000" points="278.517,-216.2121 277.0103,-227.074 275.8581,-220.4466 273.1993,-224.681 273.1993,-224.681 273.1993,-224.681 275.8581,-220.4466 269.3883,-222.288 278.517,-216.2121 278.517,-216.2121"/>
<text text-anchor="middle" x="276.0363" y="-233.0577" font-family="Helvetica,sans-Serif" font-size="10.00" fill="#000000">*</text>
<text text-anchor="middle" x="249.8852" y="-242.9161" font-family="Helvetica,sans-Serif" font-size="10.00" fill="#000000">*</text>
</g>
<!-- A8 -->
<g id="node9" class="node">
<title>A8</title>
<polygon fill="none" stroke="#000000" points="365.7999,-130 214.1051,-130 214.1051,-86 365.7999,-86 365.7999,-130"/>
<text text-anchor="middle" x="289.9525" y="-117" font-family="Helvetica,sans-Serif" font-size="10.00" fill="#000000">Match8_Engine</text>
<text text-anchor="middle" x="289.9525" y="-105" font-family="Helvetica,sans-Serif" font-size="10.00" fill="#000000">(cortex column)</text>
<text text-anchor="middle" x="289.9525" y="-93" font-family="Helvetica,sans-Serif" font-size="10.00" fill="#000000">Completely_Fair_Scheduler</text>
</g>
<!-- A6&#45;&gt;A8 -->
<g id="edge7" class="edge">
<title>A6&#45;&gt;A8</title>
<path fill="none" stroke="#000000" d="M289.9525,-167.7005C289.9525,-158.825 289.9525,-149.0923 289.9525,-140.1083"/>
<polygon fill="#000000" stroke="#000000" points="289.9526,-167.7872 293.9525,-173.7872 289.9525,-179.7872 285.9525,-173.7871 289.9526,-167.7872"/>
<polygon fill="#000000" stroke="#000000" points="289.9525,-130.0021 294.4526,-140.002 289.9525,-135.0021 289.9526,-140.0021 289.9526,-140.0021 289.9526,-140.0021 289.9525,-135.0021 285.4526,-140.0021 289.9525,-130.0021 289.9525,-130.0021"/>
<text text-anchor="middle" x="298.4049" y="-145.1282" font-family="Helvetica,sans-Serif" font-size="10.00" fill="#000000">*</text>
<text text-anchor="middle" x="281.5001" y="-158.661" font-family="Helvetica,sans-Serif" font-size="10.00" fill="#000000">*</text>
</g>
<!-- A7&#45;&gt;A6 -->
<g id="edge6" class="edge">
<title>A7&#45;&gt;A6</title>
<path fill="none" stroke="#000000" d="M328.0472,-255.4762C321.4791,-245.5665 314.1414,-234.4956 307.6727,-224.7357"/>
<polygon fill="#000000" stroke="#000000" points="328.2347,-255.7591 334.8836,-258.5505 334.8643,-265.7616 328.2153,-262.9702 328.2347,-255.7591"/>
<polygon fill="#000000" stroke="#000000" points="302.0233,-216.2121 311.2989,-222.0614 304.7856,-220.3798 307.548,-224.5475 307.548,-224.5475 307.548,-224.5475 304.7856,-220.3798 303.797,-227.0336 302.0233,-216.2121 302.0233,-216.2121"/>
<text text-anchor="middle" x="319.0827" y="-223.6513" font-family="Helvetica,sans-Serif" font-size="10.00" fill="#000000">*</text>
<text text-anchor="middle" x="317.8049" y="-252.3224" font-family="Helvetica,sans-Serif" font-size="10.00" fill="#000000">*</text>
</g>
<!-- A9 -->
<g id="node10" class="node">
<title>A9</title>
<polygon fill="none" stroke="#000000" points="282.7567,-36 167.1483,-36 167.1483,0 282.7567,0 282.7567,-36"/>
<text text-anchor="middle" x="224.9525" y="-15" font-family="Helvetica,sans-Serif" font-size="10.00" fill="#000000">Scheduler_Actuator</text>
</g>
<!-- A8&#45;&gt;A9 -->
<g id="edge8" class="edge">
<title>A8&#45;&gt;A9</title>
<path fill="none" stroke="#000000" d="M273.8851,-85.7528C264.8184,-73.1989 253.4361,-57.4389 243.9315,-44.2786"/>
<polygon fill="#000000" stroke="#000000" points="238,-36.0657 247.503,-41.5378 240.9274,-40.1191 243.8549,-44.1725 243.8549,-44.1725 243.8549,-44.1725 240.9274,-40.1191 240.2069,-46.8073 238,-36.0657 238,-36.0657"/>
</g>
<!-- A10 -->
<g id="node11" class="node">
<title>A10</title>
<polygon fill="none" stroke="#000000" points="409.5876,-36 300.3174,-36 300.3174,0 409.5876,0 409.5876,-36"/>
<text text-anchor="middle" x="354.9525" y="-21" font-family="Helvetica,sans-Serif" font-size="10.00" fill="#000000">Innovation_Prover</text>
<text text-anchor="middle" x="354.9525" y="-9" font-family="Helvetica,sans-Serif" font-size="10.00" fill="#000000">(Auto_Patenting)</text>
</g>
<!-- A8&#45;&gt;A10 -->
<g id="edge9" class="edge">
<title>A8&#45;&gt;A10</title>
<path fill="none" stroke="#000000" d="M306.0199,-85.7528C315.0866,-73.1989 326.4689,-57.4389 335.9735,-44.2786"/>
<polygon fill="#000000" stroke="#000000" points="341.905,-36.0657 339.6981,-46.8073 338.9776,-40.1191 336.0501,-44.1725 336.0501,-44.1725 336.0501,-44.1725 338.9776,-40.1191 332.402,-41.5378 341.905,-36.0657 341.905,-36.0657"/>
</g>
</g>
</svg>
