<?xml version="1.0" encoding="UTF-8" standalone="no"?>
<!DOCTYPE svg PUBLIC "-//W3C//DTD SVG 1.1//EN"
 "http://www.w3.org/Graphics/SVG/1.1/DTD/svg11.dtd">
<!-- Generated by graphviz version 2.40.1 (20161225.0304)
 -->
<!-- Title: G Pages: 1 -->
<svg width="349pt" height="474pt"
 viewBox="0.00 0.00 348.84 474.00" xmlns="http://www.w3.org/2000/svg" xmlns:xlink="http://www.w3.org/1999/xlink">
<g id="graph0" class="graph" transform="scale(1 1) rotate(0) translate(4 470)">
<title>G</title>
<polygon fill="#ffffff" stroke="transparent" points="-4,4 -4,-470 344.844,-470 344.844,4 -4,4"/>
<!-- A0 -->
<g id="node1" class="node">
<title>A0</title>
<polygon fill="#6aa84f" stroke="#000000" points="95.8575,-466 .0475,-466 .0475,-430 101.8575,-430 101.8575,-460 95.8575,-466"/>
<polyline fill="none" stroke="#000000" points="95.8575,-466 95.8575,-460 "/>
<polyline fill="none" stroke="#000000" points="101.8575,-460 95.8575,-460 "/>
<text text-anchor="middle" x="50.9525" y="-451" font-family="Helvetica,sans-Serif" font-size="10.00" fill="#000000">Innovation Miner</text>
<text text-anchor="middle" x="50.9525" y="-439" font-family="Helvetica,sans-Serif" font-size="10.00" fill="#000000">Classes</text>
</g>
<!-- A1 -->
<g id="node2" class="node">
<title>A1</title>
<polygon fill="#fff8dc" stroke="#000000" points="214.2297,-466 119.6753,-466 119.6753,-430 220.2297,-430 220.2297,-460 214.2297,-466"/>
<polyline fill="none" stroke="#000000" points="214.2297,-466 214.2297,-460 "/>
<polyline fill="none" stroke="#000000" points="220.2297,-460 214.2297,-460 "/>
<text text-anchor="middle" x="169.9525" y="-451" font-family="Helvetica,sans-Serif" font-size="10.00" fill="#000000">Agile PMO&#45;COE</text>
<text text-anchor="middle" x="169.9525" y="-439" font-family="Helvetica,sans-Serif" font-size="10.00" fill="#000000">XSP&#45;Server</text>
</g>
<!-- A2 -->
<g id="node3" class="node">
<title>A2</title>
<polygon fill="none" stroke="#000000" points="291.9525,-466 237.9525,-466 237.9525,-430 291.9525,-430 291.9525,-466"/>
<text text-anchor="middle" x="264.9525" y="-445" font-family="Helvetica,sans-Serif" font-size="10.00" fill="#000000">Miner</text>
</g>
<!-- A3 -->
<g id="node4" class="node">
<title>A3</title>
<polygon fill="none" stroke="#000000" points="261.4535,-380 178.4515,-380 178.4515,-344 261.4535,-344 261.4535,-380"/>
<text text-anchor="middle" x="219.9525" y="-365" font-family="Helvetica,sans-Serif" font-size="10.00" fill="#000000">Project</text>
<text text-anchor="middle" x="219.9525" y="-353" font-family="Helvetica,sans-Serif" font-size="10.00" fill="#000000">(Blockchain)</text>
</g>
<!-- A2&#45;&gt;A3 -->
<g id="edge1" class="edge">
<title>A2&#45;&gt;A3</title>
<path fill="none" stroke="#000000" d="M249.8238,-419.0873C244.7799,-409.4479 239.1804,-398.7467 234.2054,-389.2388"/>
<polygon fill="none" stroke="#000000" points="249.8456,-419.1292 256.1715,-422.5909 255.4092,-429.7616 249.0833,-426.2999 249.8456,-419.1292"/>
<polygon fill="#000000" stroke="#000000" points="229.4821,-380.2121 238.1055,-386.9861 231.8002,-384.6423 234.1184,-389.0724 234.1184,-389.0724 234.1184,-389.0724 231.8002,-384.6423 230.1312,-391.1588 229.4821,-380.2121 229.4821,-380.2121"/>
<text text-anchor="middle" x="245.3748" y="-389.3538" font-family="Helvetica,sans-Serif" font-size="10.00" fill="#000000">projects 0..*</text>
<text text-anchor="middle" x="239.5164" y="-414.6199" font-family="Helvetica,sans-Serif" font-size="10.00" fill="#000000">1</text>
</g>
<!-- A4 -->
<g id="node5" class="node">
<title>A4</title>
<polygon fill="none" stroke="#000000" points="340.7884,-380 279.1166,-380 279.1166,-344 340.7884,-344 340.7884,-380"/>
<text text-anchor="middle" x="309.9525" y="-359" font-family="Helvetica,sans-Serif" font-size="10.00" fill="#000000">Service</text>
</g>
<!-- A2&#45;&gt;A4 -->
<g id="edge2" class="edge">
<title>A2&#45;&gt;A4</title>
<path fill="none" stroke="#000000" d="M280.0812,-419.0873C285.1251,-409.4479 290.7246,-398.7467 295.6996,-389.2388"/>
<polygon fill="none" stroke="#000000" points="280.0594,-419.1292 280.8217,-426.2999 274.4958,-429.7616 273.7335,-422.5909 280.0594,-419.1292"/>
<polygon fill="#000000" stroke="#000000" points="300.4229,-380.2121 299.7738,-391.1588 298.1048,-384.6423 295.7866,-389.0724 295.7866,-389.0724 295.7866,-389.0724 298.1048,-384.6423 291.7995,-386.9861 300.4229,-380.2121 300.4229,-380.2121"/>
<text text-anchor="middle" x="299.5083" y="-397.1912" font-family="Helvetica,sans-Serif" font-size="10.00" fill="#000000">services 0..*</text>
<text text-anchor="middle" x="275.4105" y="-406.7825" font-family="Helvetica,sans-Serif" font-size="10.00" fill="#000000">1</text>
</g>
<!-- A5 -->
<g id="node6" class="node">
<title>A5</title>
<polygon fill="none" stroke="#000000" points="255.0556,-294 190.8494,-294 190.8494,-258 255.0556,-258 255.0556,-294"/>
<text text-anchor="middle" x="222.9525" y="-279" font-family="Helvetica,sans-Serif" font-size="10.00" fill="#000000">Sprint</text>
<text text-anchor="middle" x="222.9525" y="-267" font-family="Helvetica,sans-Serif" font-size="10.00" fill="#000000">(Tx List)</text>
</g>
<!-- A3&#45;&gt;A5 -->
<g id="edge3" class="edge">
<title>A3&#45;&gt;A5</title>
<path fill="none" stroke="#000000" d="M221.0157,-331.5205C221.325,-322.6543 221.6615,-313.01 221.9658,-304.2849"/>
<polygon fill="#000000" stroke="#000000" points="221.0072,-331.7689 224.7955,-337.9047 220.5887,-343.7616 216.8004,-337.6258 221.0072,-331.7689"/>
<polygon fill="#000000" stroke="#000000" points="222.3172,-294.2121 226.4657,-304.3629 222.1428,-299.2091 221.9685,-304.206 221.9685,-304.206 221.9685,-304.206 222.1428,-299.2091 217.4712,-304.0491 222.3172,-294.2121 222.3172,-294.2121"/>
<text text-anchor="middle" x="230.1325" y="-309.6219" font-family="Helvetica,sans-Serif" font-size="10.00" fill="#000000">*</text>
<text text-anchor="middle" x="212.7734" y="-322.3518" font-family="Helvetica,sans-Serif" font-size="10.00" fill="#000000">*</text>
</g>
<!-- A7 -->
<g id="node8" class="node">
<title>A7</title>
<polygon fill="none" stroke="#000000" points="340.7359,-294 275.1691,-294 275.1691,-258 340.7359,-258 340.7359,-294"/>
<text text-anchor="middle" x="307.9525" y="-273" font-family="Helvetica,sans-Serif" font-size="10.00" fill="#000000">Contract</text>
</g>
<!-- A4&#45;&gt;A7 -->
<g id="edge5" class="edge">
<title>A4&#45;&gt;A7</title>
<path fill="none" stroke="#000000" d="M309.5284,-343.7616C309.2632,-332.3597 308.9161,-317.4342 308.6152,-304.494"/>
<polygon fill="#000000" stroke="#000000" points="308.376,-294.2121 313.1074,-304.1047 308.4923,-299.2107 308.6086,-304.2094 308.6086,-304.2094 308.6086,-304.2094 308.4923,-299.2107 304.1098,-304.3141 308.376,-294.2121 308.376,-294.2121"/>
<text text-anchor="middle" x="317.2475" y="-309.1368" font-family="Helvetica,sans-Serif" font-size="10.00" fill="#000000">1</text>
</g>
<!-- A6 -->
<g id="node7" class="node">
<title>A6</title>
<polygon fill="none" stroke="#000000" points="320.4084,-208 207.4966,-208 207.4966,-172 320.4084,-172 320.4084,-208"/>
<text text-anchor="middle" x="263.9525" y="-193" font-family="Helvetica,sans-Serif" font-size="10.00" fill="#000000">Task&#45;Service</text>
<text text-anchor="middle" x="263.9525" y="-181" font-family="Helvetica,sans-Serif" font-size="10.00" fill="#000000">Matcher&#45;Scheduler</text>
</g>
<!-- A5&#45;&gt;A6 -->
<g id="edge4" class="edge">
<title>A5&#45;&gt;A6</title>
<path fill="none" stroke="#000000" d="M236.9224,-246.6972C241.4373,-237.227 246.424,-226.767 250.872,-217.437"/>
<polygon fill="#000000" stroke="#000000" points="236.8117,-246.9296 237.8403,-254.067 231.6475,-257.7616 230.619,-250.6242 236.8117,-246.9296"/>
<polygon fill="#000000" stroke="#000000" points="255.27,-208.2121 255.0285,-219.1753 253.1183,-212.7254 250.9665,-217.2388 250.9665,-217.2388 250.9665,-217.2388 253.1183,-212.7254 246.9045,-215.3022 255.27,-208.2121 255.27,-208.2121"/>
<text text-anchor="middle" x="255.0992" y="-225.2114" font-family="Helvetica,sans-Serif" font-size="10.00" fill="#000000">*</text>
<text text-anchor="middle" x="231.8183" y="-234.7623" font-family="Helvetica,sans-Serif" font-size="10.00" fill="#000000">*</text>
</g>
<!-- A8 -->
<g id="node9" class="node">
<title>A8</title>
<polygon fill="none" stroke="#000000" points="314.8595,-122 213.0455,-122 213.0455,-86 314.8595,-86 314.8595,-122"/>
<text text-anchor="middle" x="263.9525" y="-101" font-family="Helvetica,sans-Serif" font-size="10.00" fill="#000000">Options Ranking</text>
</g>
<!-- A6&#45;&gt;A8 -->
<g id="edge7" class="edge">
<title>A6&#45;&gt;A8</title>
<path fill="none" stroke="#000000" d="M263.9525,-171.7616C263.9525,-160.3597 263.9525,-145.4342 263.9525,-132.494"/>
<polygon fill="#000000" stroke="#000000" points="263.9525,-122.2121 268.4526,-132.2121 263.9525,-127.2121 263.9526,-132.2121 263.9526,-132.2121 263.9526,-132.2121 263.9525,-127.2121 259.4526,-132.2121 263.9525,-122.2121 263.9525,-122.2121"/>
</g>
<!-- A7&#45;&gt;A6 -->
<g id="edge6" class="edge">
<title>A7&#45;&gt;A6</title>
<path fill="none" stroke="#000000" d="M298.6212,-257.7616C292.6127,-246.0176 284.6916,-230.5355 277.9378,-217.3349"/>
<polygon fill="#000000" stroke="#000000" points="273.2703,-208.2121 281.8313,-215.0649 275.5477,-212.6633 277.8251,-217.1146 277.8251,-217.1146 277.8251,-217.1146 275.5477,-212.6633 273.819,-219.1643 273.2703,-208.2121 273.2703,-208.2121"/>
<text text-anchor="middle" x="289.051" y="-217.499" font-family="Helvetica,sans-Serif" font-size="10.00" fill="#000000">1</text>
</g>
<!-- A9 -->
<g id="node10" class="node">
<title>A9</title>
<polygon fill="none" stroke="#000000" points="321.6988,-36 206.2062,-36 206.2062,0 321.6988,0 321.6988,-36"/>
<text text-anchor="middle" x="263.9525" y="-15" font-family="Helvetica,sans-Serif" font-size="10.00" fill="#000000">Resource Schedule</text>
</g>
<!-- A8&#45;&gt;A9 -->
<g id="edge8" class="edge">
<title>A8&#45;&gt;A9</title>
<path fill="none" stroke="#000000" d="M263.9525,-85.7616C263.9525,-74.3597 263.9525,-59.4342 263.9525,-46.494"/>
<polygon fill="#000000" stroke="#000000" points="263.9525,-36.2121 268.4526,-46.2121 263.9525,-41.2121 263.9526,-46.2121 263.9526,-46.2121 263.9526,-46.2121 263.9525,-41.2121 259.4526,-46.2121 263.9525,-36.2121 263.9525,-36.2121"/>
</g>
</g>
</svg>
