<?xml version="1.0" encoding="UTF-8" standalone="no"?>
<!DOCTYPE svg PUBLIC "-//W3C//DTD SVG 1.1//EN"
 "http://www.w3.org/Graphics/SVG/1.1/DTD/svg11.dtd">
<!-- Generated by graphviz version 2.40.1 (20161225.0304)
 -->
<!-- Title: G Pages: 1 -->
<svg width="418pt" height="474pt"
 viewBox="0.00 0.00 417.52 474.00" xmlns="http://www.w3.org/2000/svg" xmlns:xlink="http://www.w3.org/1999/xlink">
<g id="graph0" class="graph" transform="scale(1 1) rotate(0) translate(4 470)">
<title>G</title>
<polygon fill="#ffffff" stroke="transparent" points="-4,4 -4,-470 413.52,-470 413.52,4 -4,4"/>
<!-- A0 -->
<g id="node1" class="node">
<title>A0</title>
<polygon fill="#6aa84f" stroke="#000000" points="95.8575,-466 .0475,-466 .0475,-430 101.8575,-430 101.8575,-460 95.8575,-466"/>
<polyline fill="none" stroke="#000000" points="95.8575,-466 95.8575,-460 "/>
<polyline fill="none" stroke="#000000" points="101.8575,-460 95.8575,-460 "/>
<text text-anchor="middle" x="50.9525" y="-451" font-family="Helvetica,sans-Serif" font-size="10.00" fill="#000000">Innovation Miner</text>
<text text-anchor="middle" x="50.9525" y="-439" font-family="Helvetica,sans-Serif" font-size="10.00" fill="#000000">Classes</text>
</g>
<!-- A1 -->
<g id="node2" class="node">
<title>A1</title>
<polygon fill="#fff8dc" stroke="#000000" points="214.2297,-466 119.6753,-466 119.6753,-430 220.2297,-430 220.2297,-460 214.2297,-466"/>
<polyline fill="none" stroke="#000000" points="214.2297,-466 214.2297,-460 "/>
<polyline fill="none" stroke="#000000" points="220.2297,-460 214.2297,-460 "/>
<text text-anchor="middle" x="169.9525" y="-451" font-family="Helvetica,sans-Serif" font-size="10.00" fill="#000000">Agile PMO&#45;COE</text>
<text text-anchor="middle" x="169.9525" y="-439" font-family="Helvetica,sans-Serif" font-size="10.00" fill="#000000">XSP&#45;Server</text>
</g>
<!-- A2 -->
<g id="node3" class="node">
<title>A2</title>
<polygon fill="none" stroke="#000000" points="343.138,-466 238.767,-466 238.767,-430 343.138,-430 343.138,-466"/>
<text text-anchor="middle" x="290.9525" y="-445" font-family="Helvetica,sans-Serif" font-size="10.00" fill="#000000">Innovation_Miner</text>
</g>
<!-- A3 -->
<g id="node4" class="node">
<title>A3</title>
<polygon fill="none" stroke="#000000" points="288.4685,-380 175.4365,-380 175.4365,-344 288.4685,-344 288.4685,-380"/>
<text text-anchor="middle" x="231.9525" y="-365" font-family="Helvetica,sans-Serif" font-size="10.00" fill="#000000">Project_Blockchain</text>
<text text-anchor="middle" x="231.9525" y="-353" font-family="Helvetica,sans-Serif" font-size="10.00" fill="#000000">(Job_Blockchain)</text>
</g>
<!-- A2&#45;&gt;A3 -->
<g id="edge1" class="edge">
<title>A2&#45;&gt;A3</title>
<path fill="none" stroke="#000000" d="M271.6498,-419.8639C264.7348,-409.7844 256.9673,-398.4623 250.1491,-388.5238"/>
<polygon fill="none" stroke="#000000" points="271.6515,-419.8664 278.3442,-422.5511 278.4401,-429.7616 271.7474,-427.0769 271.6515,-419.8664"/>
<polygon fill="#000000" stroke="#000000" points="244.4468,-380.2121 253.8147,-385.9124 247.2754,-384.3351 250.104,-388.4581 250.104,-388.4581 250.104,-388.4581 247.2754,-384.3351 246.3933,-391.0039 244.4468,-380.2121 244.4468,-380.2121"/>
<text text-anchor="middle" x="261.6709" y="-387.3773" font-family="Helvetica,sans-Serif" font-size="10.00" fill="#000000">projects 0..*</text>
<text text-anchor="middle" x="261.2161" y="-416.5964" font-family="Helvetica,sans-Serif" font-size="10.00" fill="#000000">1</text>
</g>
<!-- A4 -->
<g id="node5" class="node">
<title>A4</title>
<polygon fill="none" stroke="#000000" points="393.9037,-380 306.0013,-380 306.0013,-344 393.9037,-344 393.9037,-380"/>
<text text-anchor="middle" x="349.9525" y="-365" font-family="Helvetica,sans-Serif" font-size="10.00" fill="#000000">Service_Coin</text>
<text text-anchor="middle" x="349.9525" y="-353" font-family="Helvetica,sans-Serif" font-size="10.00" fill="#000000">(Skill_Coin)</text>
</g>
<!-- A2&#45;&gt;A4 -->
<g id="edge2" class="edge">
<title>A2&#45;&gt;A4</title>
<path fill="none" stroke="#000000" d="M310.2552,-419.8639C317.1702,-409.7844 324.9377,-398.4623 331.7559,-388.5238"/>
<polygon fill="none" stroke="#000000" points="310.2535,-419.8664 310.1576,-427.0769 303.4649,-429.7616 303.5608,-422.5511 310.2535,-419.8664"/>
<polygon fill="#000000" stroke="#000000" points="337.4582,-380.2121 335.5117,-391.0039 334.6296,-384.3351 331.801,-388.4581 331.801,-388.4581 331.801,-388.4581 334.6296,-384.3351 328.0903,-385.9124 337.4582,-380.2121 337.4582,-380.2121"/>
<text text-anchor="middle" x="334.1738" y="-396.9406" font-family="Helvetica,sans-Serif" font-size="10.00" fill="#000000">services 0..*</text>
<text text-anchor="middle" x="306.7493" y="-407.0331" font-family="Helvetica,sans-Serif" font-size="10.00" fill="#000000">1</text>
</g>
<!-- A5 -->
<g id="node6" class="node">
<title>A5</title>
<polygon fill="none" stroke="#000000" points="278.0726,-294 193.8324,-294 193.8324,-258 278.0726,-258 278.0726,-294"/>
<text text-anchor="middle" x="235.9525" y="-273" font-family="Helvetica,sans-Serif" font-size="10.00" fill="#000000">Sprint_Block</text>
</g>
<!-- A3&#45;&gt;A5 -->
<g id="edge3" class="edge">
<title>A3&#45;&gt;A5</title>
<path fill="none" stroke="#000000" d="M233.3702,-331.5205C233.7825,-322.6543 234.2311,-313.01 234.6369,-304.2849"/>
<polygon fill="#000000" stroke="#000000" points="233.3584,-331.7746 237.0753,-337.954 232.8008,-343.7616 229.0839,-337.5822 233.3584,-331.7746"/>
<polygon fill="#000000" stroke="#000000" points="235.1054,-294.2121 239.1359,-304.4104 234.8731,-299.2067 234.6407,-304.2013 234.6407,-304.2013 234.6407,-304.2013 234.8731,-299.2067 230.1456,-303.9922 235.1054,-294.2121 235.1054,-294.2121"/>
<text text-anchor="middle" x="242.7065" y="-309.7114" font-family="Helvetica,sans-Serif" font-size="10.00" fill="#000000">*</text>
<text text-anchor="middle" x="225.1997" y="-322.2623" font-family="Helvetica,sans-Serif" font-size="10.00" fill="#000000">*</text>
</g>
<!-- A7 -->
<g id="node8" class="node">
<title>A7</title>
<polygon fill="none" stroke="#000000" points="395.9595,-294 297.9455,-294 297.9455,-258 395.9595,-258 395.9595,-294"/>
<text text-anchor="middle" x="346.9525" y="-273" font-family="Helvetica,sans-Serif" font-size="10.00" fill="#000000">Smart_Contract</text>
</g>
<!-- A4&#45;&gt;A7 -->
<g id="edge5" class="edge">
<title>A4&#45;&gt;A7</title>
<path fill="none" stroke="#000000" d="M349.3163,-343.7616C348.9185,-332.3597 348.3979,-317.4342 347.9465,-304.494"/>
<polygon fill="#000000" stroke="#000000" points="347.5878,-294.2121 352.4338,-304.0491 347.7622,-299.2091 347.9365,-304.206 347.9365,-304.206 347.9365,-304.206 347.7622,-299.2091 343.4393,-304.3629 347.5878,-294.2121 347.5878,-294.2121"/>
<text text-anchor="middle" x="356.667" y="-309.0326" font-family="Helvetica,sans-Serif" font-size="10.00" fill="#000000">1</text>
</g>
<!-- A6 -->
<g id="node7" class="node">
<title>A6</title>
<polygon fill="none" stroke="#000000" points="343.9115,-208 235.9935,-208 235.9935,-172 343.9115,-172 343.9115,-208"/>
<text text-anchor="middle" x="289.9525" y="-187" font-family="Helvetica,sans-Serif" font-size="10.00" fill="#000000">Task_Transaction</text>
</g>
<!-- A5&#45;&gt;A6 -->
<g id="edge4" class="edge">
<title>A5&#45;&gt;A6</title>
<path fill="none" stroke="#000000" d="M253.8628,-247.4762C260.0852,-237.5665 267.0367,-226.4956 273.165,-216.7357"/>
<polygon fill="#000000" stroke="#000000" points="253.7858,-247.5989 253.9827,-254.8074 247.4045,-257.7616 247.2076,-250.5532 253.7858,-247.5989"/>
<polygon fill="#000000" stroke="#000000" points="278.517,-208.2121 277.0103,-219.074 275.8581,-212.4466 273.1993,-216.681 273.1993,-216.681 273.1993,-216.681 275.8581,-212.4466 269.3883,-214.288 278.517,-208.2121 278.517,-208.2121"/>
<text text-anchor="middle" x="276.0363" y="-225.0577" font-family="Helvetica,sans-Serif" font-size="10.00" fill="#000000">*</text>
<text text-anchor="middle" x="249.8852" y="-234.9161" font-family="Helvetica,sans-Serif" font-size="10.00" fill="#000000">*</text>
</g>
<!-- A8 -->
<g id="node9" class="node">
<title>A8</title>
<polygon fill="none" stroke="#000000" points="365.7999,-122 214.1051,-122 214.1051,-86 365.7999,-86 365.7999,-122"/>
<text text-anchor="middle" x="289.9525" y="-107" font-family="Helvetica,sans-Serif" font-size="10.00" fill="#000000">Match8_Engine</text>
<text text-anchor="middle" x="289.9525" y="-95" font-family="Helvetica,sans-Serif" font-size="10.00" fill="#000000">Completely_Fair_Scheduler</text>
</g>
<!-- A6&#45;&gt;A8 -->
<g id="edge7" class="edge">
<title>A6&#45;&gt;A8</title>
<path fill="none" stroke="#000000" d="M289.9525,-159.5205C289.9525,-150.6543 289.9525,-141.01 289.9525,-132.2849"/>
<polygon fill="#000000" stroke="#000000" points="289.9526,-159.7616 293.9525,-165.7616 289.9525,-171.7616 285.9525,-165.7616 289.9526,-159.7616"/>
<polygon fill="#000000" stroke="#000000" points="289.9525,-122.2121 294.4526,-132.2121 289.9525,-127.2121 289.9526,-132.2121 289.9526,-132.2121 289.9526,-132.2121 289.9525,-127.2121 285.4526,-132.2121 289.9525,-122.2121 289.9525,-122.2121"/>
<text text-anchor="middle" x="298.4049" y="-137.3383" font-family="Helvetica,sans-Serif" font-size="10.00" fill="#000000">*</text>
<text text-anchor="middle" x="281.5001" y="-150.6355" font-family="Helvetica,sans-Serif" font-size="10.00" fill="#000000">*</text>
</g>
<!-- A7&#45;&gt;A6 -->
<g id="edge6" class="edge">
<title>A7&#45;&gt;A6</title>
<path fill="none" stroke="#000000" d="M334.8643,-257.7616C326.9293,-245.7896 316.4196,-229.9328 307.5619,-216.5685"/>
<polygon fill="#000000" stroke="#000000" points="302.0233,-208.2121 311.2989,-214.0614 304.7856,-212.3798 307.548,-216.5475 307.548,-216.5475 307.548,-216.5475 304.7856,-212.3798 303.797,-219.0336 302.0233,-208.2121 302.0233,-208.2121"/>
<text text-anchor="middle" x="319.0827" y="-215.6513" font-family="Helvetica,sans-Serif" font-size="10.00" fill="#000000">1</text>
</g>
<!-- A9 -->
<g id="node10" class="node">
<title>A9</title>
<polygon fill="none" stroke="#000000" points="282.7567,-36 167.1483,-36 167.1483,0 282.7567,0 282.7567,-36"/>
<text text-anchor="middle" x="224.9525" y="-15" font-family="Helvetica,sans-Serif" font-size="10.00" fill="#000000">Scheduler_Actuator</text>
</g>
<!-- A8&#45;&gt;A9 -->
<g id="edge8" class="edge">
<title>A8&#45;&gt;A9</title>
<path fill="none" stroke="#000000" d="M276.1677,-85.7616C267.119,-73.7896 255.1343,-57.9328 245.0334,-44.5685"/>
<polygon fill="#000000" stroke="#000000" points="238.7175,-36.2121 248.3371,-41.4764 241.7323,-40.2009 244.7471,-44.1898 244.7471,-44.1898 244.7471,-44.1898 241.7323,-40.2009 241.1572,-46.9032 238.7175,-36.2121 238.7175,-36.2121"/>
</g>
<!-- A10 -->
<g id="node11" class="node">
<title>A10</title>
<polygon fill="none" stroke="#000000" points="409.5876,-36 300.3174,-36 300.3174,0 409.5876,0 409.5876,-36"/>
<text text-anchor="middle" x="354.9525" y="-21" font-family="Helvetica,sans-Serif" font-size="10.00" fill="#000000">Innovation_Prover</text>
<text text-anchor="middle" x="354.9525" y="-9" font-family="Helvetica,sans-Serif" font-size="10.00" fill="#000000">(Auto_Patenting)</text>
</g>
<!-- A8&#45;&gt;A10 -->
<g id="edge9" class="edge">
<title>A8&#45;&gt;A10</title>
<path fill="none" stroke="#000000" d="M303.7373,-85.7616C312.786,-73.7896 324.7707,-57.9328 334.8716,-44.5685"/>
<polygon fill="#000000" stroke="#000000" points="341.1875,-36.2121 338.7478,-46.9032 338.1727,-40.2009 335.1579,-44.1898 335.1579,-44.1898 335.1579,-44.1898 338.1727,-40.2009 331.5679,-41.4764 341.1875,-36.2121 341.1875,-36.2121"/>
</g>
</g>
</svg>
