<?xml version="1.0" encoding="UTF-8" standalone="no"?>
<!DOCTYPE svg PUBLIC "-//W3C//DTD SVG 1.1//EN"
 "http://www.w3.org/Graphics/SVG/1.1/DTD/svg11.dtd">
<!-- Generated by graphviz version 2.40.1 (20161225.0304)
 -->
<!-- Title: G Pages: 1 -->
<svg width="651pt" height="662pt"
 viewBox="0.00 0.00 651.24 662.00" xmlns="http://www.w3.org/2000/svg" xmlns:xlink="http://www.w3.org/1999/xlink">
<g id="graph0" class="graph" transform="scale(1 1) rotate(0) translate(4 658)">
<title>G</title>
<polygon fill="#ffffff" stroke="transparent" points="-4,4 -4,-658 647.243,-658 647.243,4 -4,4"/>
<!-- A0 -->
<g id="node1" class="node">
<title>A0</title>
<polygon fill="#6aa84f" stroke="#000000" points="95.8575,-654 .0475,-654 .0475,-618 101.8575,-618 101.8575,-648 95.8575,-654"/>
<polyline fill="none" stroke="#000000" points="95.8575,-654 95.8575,-648 "/>
<polyline fill="none" stroke="#000000" points="101.8575,-648 95.8575,-648 "/>
<text text-anchor="middle" x="50.9525" y="-639" font-family="Helvetica,sans-Serif" font-size="10.00" fill="#000000">Innovation Miner</text>
<text text-anchor="middle" x="50.9525" y="-627" font-family="Helvetica,sans-Serif" font-size="10.00" fill="#000000">Classes</text>
</g>
<!-- A1 -->
<g id="node2" class="node">
<title>A1</title>
<polygon fill="#fff8dc" stroke="#000000" points="214.2297,-654 119.6753,-654 119.6753,-618 220.2297,-618 220.2297,-648 214.2297,-654"/>
<polyline fill="none" stroke="#000000" points="214.2297,-654 214.2297,-648 "/>
<polyline fill="none" stroke="#000000" points="220.2297,-648 214.2297,-648 "/>
<text text-anchor="middle" x="169.9525" y="-639" font-family="Helvetica,sans-Serif" font-size="10.00" fill="#000000">Agile PMO&#45;COE</text>
<text text-anchor="middle" x="169.9525" y="-627" font-family="Helvetica,sans-Serif" font-size="10.00" fill="#000000">XSP&#45;Server</text>
</g>
<!-- A2 -->
<g id="node3" class="node">
<title>A2</title>
<polygon fill="#f09991" stroke="#000000" points="343.138,-654 238.767,-654 238.767,-618 343.138,-618 343.138,-654"/>
<text text-anchor="middle" x="290.9525" y="-633" font-family="Helvetica,sans-Serif" font-size="10.00" fill="#000000">Innovation_Miner</text>
</g>
<!-- A3 -->
<g id="node4" class="node">
<title>A3</title>
<polygon fill="#f09991" stroke="#000000" points="288.4685,-568 175.4365,-568 175.4365,-532 288.4685,-532 288.4685,-568"/>
<text text-anchor="middle" x="231.9525" y="-553" font-family="Helvetica,sans-Serif" font-size="10.00" fill="#000000">Project_Blockchain</text>
<text text-anchor="middle" x="231.9525" y="-541" font-family="Helvetica,sans-Serif" font-size="10.00" fill="#000000">(Job_Blockchain)</text>
</g>
<!-- A2&#45;&gt;A3 -->
<g id="edge1" class="edge">
<title>A2&#45;&gt;A3</title>
<path fill="none" stroke="#000000" d="M271.6498,-607.8639C264.7348,-597.7844 256.9673,-586.4623 250.1491,-576.5238"/>
<polygon fill="#000000" stroke="#000000" points="271.6515,-607.8664 278.3442,-610.5511 278.4401,-617.7616 271.7474,-615.0769 271.6515,-607.8664"/>
<polygon fill="#000000" stroke="#000000" points="244.4468,-568.2121 253.8147,-573.9124 247.2754,-572.3351 250.104,-576.4581 250.104,-576.4581 250.104,-576.4581 247.2754,-572.3351 246.3933,-579.0039 244.4468,-568.2121 244.4468,-568.2121"/>
<text text-anchor="middle" x="261.6709" y="-575.3773" font-family="Helvetica,sans-Serif" font-size="10.00" fill="#000000">projects 0..*</text>
<text text-anchor="middle" x="261.2161" y="-604.5964" font-family="Helvetica,sans-Serif" font-size="10.00" fill="#000000">1</text>
</g>
<!-- A5 -->
<g id="node6" class="node">
<title>A5</title>
<polygon fill="#f09991" stroke="#000000" points="393.9037,-568 306.0013,-568 306.0013,-532 393.9037,-532 393.9037,-568"/>
<text text-anchor="middle" x="349.9525" y="-553" font-family="Helvetica,sans-Serif" font-size="10.00" fill="#000000">Service_Coin</text>
<text text-anchor="middle" x="349.9525" y="-541" font-family="Helvetica,sans-Serif" font-size="10.00" fill="#000000">(Skill_Coin)</text>
</g>
<!-- A2&#45;&gt;A5 -->
<g id="edge2" class="edge">
<title>A2&#45;&gt;A5</title>
<path fill="none" stroke="#000000" d="M310.2552,-607.8639C317.1702,-597.7844 324.9377,-586.4623 331.7559,-576.5238"/>
<polygon fill="#000000" stroke="#000000" points="310.2535,-607.8664 310.1576,-615.0769 303.4649,-617.7616 303.5608,-610.5511 310.2535,-607.8664"/>
<polygon fill="#000000" stroke="#000000" points="337.4582,-568.2121 335.5117,-579.0039 334.6296,-572.3351 331.801,-576.4581 331.801,-576.4581 331.801,-576.4581 334.6296,-572.3351 328.0903,-573.9124 337.4582,-568.2121 337.4582,-568.2121"/>
<text text-anchor="middle" x="334.1738" y="-584.9406" font-family="Helvetica,sans-Serif" font-size="10.00" fill="#000000">services 0..*</text>
<text text-anchor="middle" x="306.7493" y="-595.0331" font-family="Helvetica,sans-Serif" font-size="10.00" fill="#000000">1</text>
</g>
<!-- A6 -->
<g id="node7" class="node">
<title>A6</title>
<polygon fill="#f09991" stroke="#000000" points="278.0726,-482 193.8324,-482 193.8324,-446 278.0726,-446 278.0726,-482"/>
<text text-anchor="middle" x="235.9525" y="-461" font-family="Helvetica,sans-Serif" font-size="10.00" fill="#000000">Sprint_Block</text>
</g>
<!-- A3&#45;&gt;A6 -->
<g id="edge3" class="edge">
<title>A3&#45;&gt;A6</title>
<path fill="none" stroke="#000000" d="M233.3702,-519.5205C233.7825,-510.6543 234.2311,-501.01 234.6369,-492.2849"/>
<polygon fill="#000000" stroke="#000000" points="233.3584,-519.7746 237.0753,-525.954 232.8008,-531.7616 229.0839,-525.5822 233.3584,-519.7746"/>
<polygon fill="#000000" stroke="#000000" points="235.1054,-482.2121 239.1359,-492.4104 234.8731,-487.2067 234.6407,-492.2013 234.6407,-492.2013 234.6407,-492.2013 234.8731,-487.2067 230.1456,-491.9922 235.1054,-482.2121 235.1054,-482.2121"/>
<text text-anchor="middle" x="242.7065" y="-497.7114" font-family="Helvetica,sans-Serif" font-size="10.00" fill="#000000">*</text>
<text text-anchor="middle" x="225.1997" y="-510.2623" font-family="Helvetica,sans-Serif" font-size="10.00" fill="#000000">1</text>
</g>
<!-- A4 -->
<g id="node5" class="node">
<title>A4</title>
<polygon fill="#f09991" stroke="#000000" points="480.7367,-654 361.1683,-654 361.1683,-618 486.7367,-618 486.7367,-648 480.7367,-654"/>
<polyline fill="none" stroke="#000000" points="480.7367,-654 480.7367,-648 "/>
<polyline fill="none" stroke="#000000" points="486.7367,-648 480.7367,-648 "/>
<text text-anchor="middle" x="423.9525" y="-639" font-family="Helvetica,sans-Serif" font-size="10.00" fill="#000000">Executive_Levels</text>
<text text-anchor="middle" x="423.9525" y="-627" font-family="Helvetica,sans-Serif" font-size="10.00" fill="#000000">DNA Class Levels 1&#45;4</text>
</g>
<!-- A8 -->
<g id="node9" class="node">
<title>A8</title>
<polygon fill="#f09991" stroke="#000000" points="395.9595,-482 297.9455,-482 297.9455,-446 395.9595,-446 395.9595,-482"/>
<text text-anchor="middle" x="346.9525" y="-461" font-family="Helvetica,sans-Serif" font-size="10.00" fill="#000000">Smart_Contract</text>
</g>
<!-- A5&#45;&gt;A8 -->
<g id="edge5" class="edge">
<title>A5&#45;&gt;A8</title>
<path fill="none" stroke="#000000" d="M348.8893,-519.5205C348.58,-510.6543 348.2435,-501.01 347.9392,-492.2849"/>
<polygon fill="#000000" stroke="#000000" points="348.8978,-519.7689 353.1046,-525.6258 349.3163,-531.7616 345.1095,-525.9047 348.8978,-519.7689"/>
<polygon fill="#000000" stroke="#000000" points="347.5878,-482.2121 352.4338,-492.0491 347.7622,-487.2091 347.9365,-492.206 347.9365,-492.206 347.9365,-492.206 347.7622,-487.2091 343.4393,-492.3629 347.5878,-482.2121 347.5878,-482.2121"/>
<text text-anchor="middle" x="356.667" y="-497.0326" font-family="Helvetica,sans-Serif" font-size="10.00" fill="#000000">*</text>
<text text-anchor="middle" x="340.2371" y="-510.9411" font-family="Helvetica,sans-Serif" font-size="10.00" fill="#000000">1</text>
</g>
<!-- A7 -->
<g id="node8" class="node">
<title>A7</title>
<polygon fill="#f09991" stroke="#000000" points="377.7486,-396 202.1564,-396 202.1564,-360 377.7486,-360 377.7486,-396"/>
<text text-anchor="middle" x="289.9525" y="-381" font-family="Helvetica,sans-Serif" font-size="10.00" fill="#000000">Open_Tasks_Transactions </text>
<text text-anchor="middle" x="289.9525" y="-369" font-family="Helvetica,sans-Serif" font-size="10.00" fill="#000000">(Exec_Project_X_Service_Deals)</text>
</g>
<!-- A6&#45;&gt;A7 -->
<g id="edge4" class="edge">
<title>A6&#45;&gt;A7</title>
<path fill="none" stroke="#000000" d="M253.8628,-435.4762C260.0852,-425.5665 267.0367,-414.4956 273.165,-404.7357"/>
<polygon fill="#000000" stroke="#000000" points="253.7858,-435.5989 253.9827,-442.8074 247.4045,-445.7616 247.2076,-438.5532 253.7858,-435.5989"/>
<polygon fill="#000000" stroke="#000000" points="278.517,-396.2121 277.0103,-407.074 275.8581,-400.4466 273.1993,-404.681 273.1993,-404.681 273.1993,-404.681 275.8581,-400.4466 269.3883,-402.288 278.517,-396.2121 278.517,-396.2121"/>
<text text-anchor="middle" x="276.0363" y="-413.0577" font-family="Helvetica,sans-Serif" font-size="10.00" fill="#000000">*</text>
<text text-anchor="middle" x="249.8852" y="-422.9161" font-family="Helvetica,sans-Serif" font-size="10.00" fill="#000000">1</text>
</g>
<!-- A9 -->
<g id="node10" class="node">
<title>A9</title>
<polygon fill="#50b3ed" stroke="#000000" points="365.7999,-310 214.1051,-310 214.1051,-266 365.7999,-266 365.7999,-310"/>
<text text-anchor="middle" x="289.9525" y="-297" font-family="Helvetica,sans-Serif" font-size="10.00" fill="#000000">Match8_Engine</text>
<text text-anchor="middle" x="289.9525" y="-285" font-family="Helvetica,sans-Serif" font-size="10.00" fill="#000000">(cortex column)</text>
<text text-anchor="middle" x="289.9525" y="-273" font-family="Helvetica,sans-Serif" font-size="10.00" fill="#000000">Completely_Fair_Scheduler</text>
</g>
<!-- A7&#45;&gt;A9 -->
<g id="edge7" class="edge">
<title>A7&#45;&gt;A9</title>
<path fill="none" stroke="#000000" d="M289.9525,-347.7005C289.9525,-338.825 289.9525,-329.0923 289.9525,-320.1083"/>
<polygon fill="#000000" stroke="#000000" points="289.9526,-347.7872 293.9525,-353.7872 289.9525,-359.7872 285.9525,-353.7871 289.9526,-347.7872"/>
<polygon fill="#000000" stroke="#000000" points="289.9525,-310.0021 294.4526,-320.002 289.9525,-315.0021 289.9526,-320.0021 289.9526,-320.0021 289.9526,-320.0021 289.9525,-315.0021 285.4526,-320.0021 289.9525,-310.0021 289.9525,-310.0021"/>
<text text-anchor="middle" x="298.4049" y="-325.1282" font-family="Helvetica,sans-Serif" font-size="10.00" fill="#000000">*</text>
<text text-anchor="middle" x="281.5001" y="-338.661" font-family="Helvetica,sans-Serif" font-size="10.00" fill="#000000">*</text>
</g>
<!-- A8&#45;&gt;A7 -->
<g id="edge6" class="edge">
<title>A8&#45;&gt;A7</title>
<path fill="none" stroke="#000000" d="M328.0472,-435.4762C321.4791,-425.5665 314.1414,-414.4956 307.6727,-404.7357"/>
<polygon fill="#000000" stroke="#000000" points="328.2347,-435.7591 334.8836,-438.5505 334.8643,-445.7616 328.2153,-442.9702 328.2347,-435.7591"/>
<polygon fill="#000000" stroke="#000000" points="302.0233,-396.2121 311.2989,-402.0614 304.7856,-400.3798 307.548,-404.5475 307.548,-404.5475 307.548,-404.5475 304.7856,-400.3798 303.797,-407.0336 302.0233,-396.2121 302.0233,-396.2121"/>
<text text-anchor="middle" x="319.0827" y="-403.6513" font-family="Helvetica,sans-Serif" font-size="10.00" fill="#000000">*</text>
<text text-anchor="middle" x="317.8049" y="-432.3224" font-family="Helvetica,sans-Serif" font-size="10.00" fill="#000000">1</text>
</g>
<!-- A11 -->
<g id="node12" class="node">
<title>A11</title>
<polygon fill="#50b3ed" stroke="#000000" points="282.7567,-216 167.1483,-216 167.1483,-180 282.7567,-180 282.7567,-216"/>
<text text-anchor="middle" x="224.9525" y="-195" font-family="Helvetica,sans-Serif" font-size="10.00" fill="#000000">Scheduler_Actuator</text>
</g>
<!-- A9&#45;&gt;A11 -->
<g id="edge8" class="edge">
<title>A9&#45;&gt;A11</title>
<path fill="none" stroke="#000000" d="M273.8851,-265.7528C264.8184,-253.1989 253.4361,-237.4389 243.9315,-224.2786"/>
<polygon fill="#000000" stroke="#000000" points="238,-216.0657 247.503,-221.5378 240.9274,-220.1191 243.8549,-224.1725 243.8549,-224.1725 243.8549,-224.1725 240.9274,-220.1191 240.2069,-226.8073 238,-216.0657 238,-216.0657"/>
</g>
<!-- A12 -->
<g id="node13" class="node">
<title>A12</title>
<polygon fill="#50b3ed" stroke="#000000" points="413.5876,-216 304.3174,-216 304.3174,-180 413.5876,-180 413.5876,-216"/>
<text text-anchor="middle" x="358.9525" y="-201" font-family="Helvetica,sans-Serif" font-size="10.00" fill="#000000">Innovation_Prover</text>
<text text-anchor="middle" x="358.9525" y="-189" font-family="Helvetica,sans-Serif" font-size="10.00" fill="#000000">(Auto_Patenting)</text>
</g>
<!-- A9&#45;&gt;A12 -->
<g id="edge9" class="edge">
<title>A9&#45;&gt;A12</title>
<path fill="none" stroke="#000000" d="M307.0087,-265.7528C316.6334,-253.1989 328.716,-237.4389 338.8055,-224.2786"/>
<polygon fill="#000000" stroke="#000000" points="345.1021,-216.0657 342.589,-226.7398 342.0599,-220.0338 339.0178,-224.0018 339.0178,-224.0018 339.0178,-224.0018 342.0599,-220.0338 335.4465,-221.2639 345.1021,-216.0657 345.1021,-216.0657"/>
</g>
<!-- A10 -->
<g id="node11" class="node">
<title>A10</title>
<polygon fill="#50b3ed" stroke="#000000" points="637.0341,-654 504.8709,-654 504.8709,-618 643.0341,-618 643.0341,-648 637.0341,-654"/>
<polyline fill="none" stroke="#000000" points="637.0341,-654 637.0341,-648 "/>
<polyline fill="none" stroke="#000000" points="643.0341,-648 637.0341,-648 "/>
<text text-anchor="middle" x="573.9525" y="-639" font-family="Helvetica,sans-Serif" font-size="10.00" fill="#000000">Operations_Levels</text>
<text text-anchor="middle" x="573.9525" y="-627" font-family="Helvetica,sans-Serif" font-size="10.00" fill="#000000">RNA Instance Levels 5&#45;8</text>
</g>
<!-- A13 -->
<g id="node14" class="node">
<title>A13</title>
<polygon fill="#50b3ed" stroke="#000000" points="259.0826,-130 174.8224,-130 174.8224,-94 259.0826,-94 259.0826,-130"/>
<text text-anchor="middle" x="216.9525" y="-109" font-family="Helvetica,sans-Serif" font-size="10.00" fill="#000000">Test_Engine</text>
</g>
<!-- A11&#45;&gt;A13 -->
<g id="edge10" class="edge">
<title>A11&#45;&gt;A13</title>
<path fill="none" stroke="#000000" d="M223.2559,-179.7616C222.1953,-168.3597 220.8068,-153.4342 219.6031,-140.494"/>
<polygon fill="#000000" stroke="#000000" points="218.6466,-130.2121 224.0536,-139.7523 219.1098,-135.1906 219.573,-140.1691 219.573,-140.1691 219.573,-140.1691 219.1098,-135.1906 215.0923,-140.586 218.6466,-130.2121 218.6466,-130.2121"/>
</g>
<!-- A14 -->
<g id="node15" class="node">
<title>A14</title>
<polygon fill="#50b3ed" stroke="#000000" points="450.529,-130 277.376,-130 277.376,-94 450.529,-94 450.529,-130"/>
<text text-anchor="middle" x="363.9525" y="-115" font-family="Helvetica,sans-Serif" font-size="10.00" fill="#000000">Patenting_&amp;_Minification</text>
<text text-anchor="middle" x="363.9525" y="-103" font-family="Helvetica,sans-Serif" font-size="10.00" fill="#000000">Chromozome.add(gene_service)</text>
</g>
<!-- A12&#45;&gt;A14 -->
<g id="edge11" class="edge">
<title>A12&#45;&gt;A14</title>
<path fill="none" stroke="#000000" d="M360.0129,-179.7616C360.6758,-168.3597 361.5435,-153.4342 362.2959,-140.494"/>
<polygon fill="#000000" stroke="#000000" points="362.8937,-130.2121 366.8056,-140.4565 362.6034,-135.2037 362.3132,-140.1952 362.3132,-140.1952 362.3132,-140.1952 362.6034,-135.2037 357.8207,-139.934 362.8937,-130.2121 362.8937,-130.2121"/>
</g>
<!-- A15 -->
<g id="node16" class="node">
<title>A15</title>
<polygon fill="#50b3ed" stroke="#000000" points="363.9212,-44 215.9838,-44 215.9838,0 363.9212,0 363.9212,-44"/>
<text text-anchor="middle" x="289.9525" y="-31" font-family="Helvetica,sans-Serif" font-size="10.00" fill="#000000">Project_Finance</text>
<text text-anchor="middle" x="289.9525" y="-19" font-family="Helvetica,sans-Serif" font-size="10.00" fill="#000000">Service_Payment </text>
<text text-anchor="middle" x="289.9525" y="-7" font-family="Helvetica,sans-Serif" font-size="10.00" fill="#000000">Org_Scaling_ReRendering</text>
</g>
<!-- A13&#45;&gt;A15 -->
<g id="edge12" class="edge">
<title>A13&#45;&gt;A15</title>
<path fill="none" stroke="#000000" d="M231.7251,-93.7872C241.4766,-81.7648 254.4811,-65.7318 265.7265,-51.8677"/>
<polygon fill="#000000" stroke="#000000" points="272.1064,-44.0021 269.3018,-54.6033 268.9566,-47.8853 265.8069,-51.7685 265.8069,-51.7685 265.8069,-51.7685 268.9566,-47.8853 262.312,-48.9338 272.1064,-44.0021 272.1064,-44.0021"/>
</g>
<!-- A14&#45;&gt;A15 -->
<g id="edge13" class="edge">
<title>A14&#45;&gt;A15</title>
<path fill="none" stroke="#000000" d="M348.9775,-93.7872C339.0925,-81.7648 325.9098,-65.7318 314.5104,-51.8677"/>
<polygon fill="#000000" stroke="#000000" points="308.0431,-44.0021 317.8701,-48.8684 311.2186,-47.8642 314.3942,-51.7264 314.3942,-51.7264 314.3942,-51.7264 311.2186,-47.8642 310.9183,-54.5843 308.0431,-44.0021 308.0431,-44.0021"/>
</g>
</g>
</svg>
