<?xml version="1.0" encoding="UTF-8" standalone="no"?>
<!DOCTYPE svg PUBLIC "-//W3C//DTD SVG 1.1//EN"
 "http://www.w3.org/Graphics/SVG/1.1/DTD/svg11.dtd">
<!-- Generated by graphviz version 2.40.1 (20161225.0304)
 -->
<!-- Title: G Pages: 1 -->
<svg width="512pt" height="434pt"
 viewBox="0.00 0.00 512.40 434.00" xmlns="http://www.w3.org/2000/svg" xmlns:xlink="http://www.w3.org/1999/xlink">
<g id="graph0" class="graph" transform="scale(1 1) rotate(0) translate(4 430)">
<title>G</title>
<polygon fill="#ffffff" stroke="transparent" points="-4,4 -4,-430 508.4015,-430 508.4015,4 -4,4"/>
<!-- A0 -->
<g id="node1" class="node">
<title>A0</title>
<polygon fill="#6aa84f" stroke="#000000" points="92.335,-426 .221,-426 .221,-370 98.335,-370 98.335,-420 92.335,-426"/>
<polyline fill="none" stroke="#000000" points="92.335,-426 92.335,-420 "/>
<polyline fill="none" stroke="#000000" points="98.335,-420 92.335,-420 "/>
<text text-anchor="middle" x="49.278" y="-413" font-family="Helvetica,sans-Serif" font-size="10.00" fill="#000000">High Level</text>
<text text-anchor="middle" x="49.278" y="-401" font-family="Helvetica,sans-Serif" font-size="10.00" fill="#000000">Social</text>
<text text-anchor="middle" x="49.278" y="-389" font-family="Helvetica,sans-Serif" font-size="10.00" fill="#000000">Capital Network</text>
<text text-anchor="middle" x="49.278" y="-377" font-family="Helvetica,sans-Serif" font-size="10.00" fill="#000000">Classes</text>
</g>
<!-- A1 -->
<g id="node2" class="node">
<title>A1</title>
<polygon fill="#fff8dc" stroke="#000000" points="212.183,-420 116.373,-420 116.373,-376 218.183,-376 218.183,-414 212.183,-420"/>
<polyline fill="none" stroke="#000000" points="212.183,-420 212.183,-414 "/>
<polyline fill="none" stroke="#000000" points="218.183,-414 212.183,-414 "/>
<text text-anchor="middle" x="167.278" y="-407" font-family="Helvetica,sans-Serif" font-size="10.00" fill="#000000">Backend XSP</text>
<text text-anchor="middle" x="167.278" y="-395" font-family="Helvetica,sans-Serif" font-size="10.00" fill="#000000">Innovation Miner</text>
<text text-anchor="middle" x="167.278" y="-383" font-family="Helvetica,sans-Serif" font-size="10.00" fill="#000000">Classes</text>
</g>
<!-- A2 -->
<g id="node3" class="node">
<title>A2</title>
<polygon fill="none" stroke="#000000" points="290.278,-416 236.278,-416 236.278,-380 290.278,-380 290.278,-416"/>
<text text-anchor="middle" x="263.278" y="-395" font-family="Helvetica,sans-Serif" font-size="10.00" fill="#000000">User</text>
</g>
<!-- A3 -->
<g id="node4" class="node">
<title>A3</title>
<polygon fill="none" stroke="#000000" points="253.8921,-320 194.6639,-320 194.6639,-284 253.8921,-284 253.8921,-320"/>
<text text-anchor="middle" x="224.278" y="-299" font-family="Helvetica,sans-Serif" font-size="10.00" fill="#000000">Project</text>
</g>
<!-- A2&#45;&gt;A3 -->
<g id="edge1" class="edge">
<title>A2&#45;&gt;A3</title>
<path fill="none" stroke="#000000" d="M251.355,-368.6512C246.3033,-356.2162 240.4482,-341.8035 235.4777,-329.5684"/>
<polygon fill="none" stroke="#000000" points="251.4258,-368.8255 257.39,-372.8788 255.9424,-379.9431 249.9782,-375.8899 251.4258,-368.8255"/>
<polygon fill="#000000" stroke="#000000" points="231.7133,-320.3023 239.6462,-327.8732 233.5952,-324.9346 235.4771,-329.567 235.4771,-329.567 235.4771,-329.567 233.5952,-324.9346 231.308,-331.2607 231.7133,-320.3023 231.7133,-320.3023"/>
<text text-anchor="middle" x="246.3664" y="-330.9143" font-family="Helvetica,sans-Serif" font-size="10.00" fill="#000000">projects 0..*</text>
<text text-anchor="middle" x="241.2893" y="-363.3311" font-family="Helvetica,sans-Serif" font-size="10.00" fill="#000000">1</text>
</g>
<!-- A4 -->
<g id="node5" class="node">
<title>A4</title>
<polygon fill="none" stroke="#000000" points="333.1139,-320 271.4421,-320 271.4421,-284 333.1139,-284 333.1139,-320"/>
<text text-anchor="middle" x="302.278" y="-299" font-family="Helvetica,sans-Serif" font-size="10.00" fill="#000000">Service</text>
</g>
<!-- A2&#45;&gt;A4 -->
<g id="edge2" class="edge">
<title>A2&#45;&gt;A4</title>
<path fill="none" stroke="#000000" d="M275.201,-368.6512C280.2527,-356.2162 286.1078,-341.8035 291.0783,-329.5684"/>
<polygon fill="none" stroke="#000000" points="275.1302,-368.8255 276.5778,-375.8899 270.6136,-379.9431 269.166,-372.8788 275.1302,-368.8255"/>
<polygon fill="#000000" stroke="#000000" points="294.8427,-320.3023 295.248,-331.2607 292.9608,-324.9346 291.0789,-329.567 291.0789,-329.567 291.0789,-329.567 292.9608,-324.9346 286.9098,-327.8732 294.8427,-320.3023 294.8427,-320.3023"/>
<text text-anchor="middle" x="295.8513" y="-337.2768" font-family="Helvetica,sans-Serif" font-size="10.00" fill="#000000">services 0..*</text>
<text text-anchor="middle" x="269.605" y="-356.9686" font-family="Helvetica,sans-Serif" font-size="10.00" fill="#000000">1</text>
</g>
<!-- A5 -->
<g id="node6" class="node">
<title>A5</title>
<polygon fill="none" stroke="#000000" points="251.278,-188 197.278,-188 197.278,-152 251.278,-152 251.278,-188"/>
<text text-anchor="middle" x="224.278" y="-167" font-family="Helvetica,sans-Serif" font-size="10.00" fill="#000000">Task</text>
</g>
<!-- A3&#45;&gt;A5 -->
<g id="edge3" class="edge">
<title>A3&#45;&gt;A5</title>
<path fill="none" stroke="#000000" d="M224.278,-271.8839C224.278,-249.8452 224.278,-220.1367 224.278,-198.4887"/>
<polygon fill="#000000" stroke="#000000" points="224.2781,-271.9227 228.278,-277.9228 224.278,-283.9227 220.278,-277.9227 224.2781,-271.9227"/>
<polygon fill="#000000" stroke="#000000" points="224.278,-188.2825 228.7781,-198.2825 224.278,-193.2825 224.2781,-198.2825 224.2781,-198.2825 224.2781,-198.2825 224.278,-193.2825 219.7781,-198.2826 224.278,-188.2825 224.278,-188.2825"/>
<text text-anchor="middle" x="232.7304" y="-203.4087" font-family="Helvetica,sans-Serif" font-size="10.00" fill="#000000">*</text>
<text text-anchor="middle" x="215.8256" y="-262.7966" font-family="Helvetica,sans-Serif" font-size="10.00" fill="#000000">*</text>
</g>
<!-- A6 -->
<g id="node7" class="node">
<title>A6</title>
<polygon fill="none" stroke="#000000" points="179.5032,-188 69.0528,-188 69.0528,-152 179.5032,-152 179.5032,-188"/>
<text text-anchor="middle" x="124.278" y="-167" font-family="Helvetica,sans-Serif" font-size="10.00" fill="#000000">Social XP Delivery</text>
</g>
<!-- A3&#45;&gt;A6 -->
<g id="edge4" class="edge">
<title>A3&#45;&gt;A6</title>
<path fill="none" stroke="#000000" d="M210.5831,-283.9227C193.4743,-261.3391 164.061,-222.5136 144.393,-196.5518"/>
<polygon fill="#000000" stroke="#000000" points="138.1284,-188.2825 147.7539,-193.5361 141.1477,-192.268 144.167,-196.2535 144.167,-196.2535 144.167,-196.2535 141.1477,-192.268 140.5801,-198.9708 138.1284,-188.2825 138.1284,-188.2825"/>
<text text-anchor="middle" x="155.8113" y="-194.6267" font-family="Helvetica,sans-Serif" font-size="10.00" fill="#000000">1</text>
</g>
<!-- A7 -->
<g id="node8" class="node">
<title>A7</title>
<polygon fill="none" stroke="#000000" points="270.278,-202 270.278,-234 361.278,-234 361.278,-202 270.278,-202"/>
<text text-anchor="start" x="298.551" y="-215" font-family="Helvetica,sans-Serif" font-size="10.00" fill="#000000">Product</text>
<polygon fill="none" stroke="#000000" points="270.278,-170 270.278,-202 361.278,-202 361.278,-170 270.278,-170"/>
<text text-anchor="start" x="280.2185" y="-183" font-family="Helvetica,sans-Serif" font-size="10.00" fill="#000000">UNSPSC_Code</text>
<polygon fill="none" stroke="#000000" points="270.278,-138 270.278,-170 361.278,-170 361.278,-138 270.278,-138"/>
<text text-anchor="start" x="301.616" y="-151" font-family="Helvetica,sans-Serif" font-size="10.00" fill="#000000">price()</text>
<polygon fill="none" stroke="#000000" points="270.278,-106 270.278,-138 361.278,-138 361.278,-106 270.278,-106"/>
<text text-anchor="start" x="294.672" y="-119" font-family="Helvetica,sans-Serif" font-size="10.00" fill="#000000">rc_price()</text>
</g>
<!-- A3&#45;&gt;A7 -->
<g id="edge5" class="edge">
<title>A3&#45;&gt;A7</title>
<path fill="none" stroke="#000000" d="M236.7404,-283.9227C244.3385,-272.9012 254.6035,-258.0113 265.2031,-242.6361"/>
<polygon fill="#000000" stroke="#000000" points="271.1114,-234.0659 269.1404,-244.8532 268.2734,-238.1825 265.4354,-242.299 265.4354,-242.299 265.4354,-242.299 268.2734,-238.1825 261.7305,-239.7449 271.1114,-234.0659 271.1114,-234.0659"/>
<text text-anchor="middle" x="267.7821" y="-250.7869" font-family="Helvetica,sans-Serif" font-size="10.00" fill="#000000">*</text>
<text text-anchor="middle" x="240.0696" y="-261.2018" font-family="Helvetica,sans-Serif" font-size="10.00" fill="#000000">*</text>
</g>
<!-- A4&#45;&gt;A5 -->
<g id="edge6" class="edge">
<title>A4&#45;&gt;A5</title>
<path fill="none" stroke="#000000" d="M290.8442,-283.9396C282.2816,-270.3066 270.3576,-251.0917 260.278,-234 253.195,-221.9896 245.5929,-208.5594 239.2083,-197.1151"/>
<polygon fill="#000000" stroke="#000000" points="234.1696,-188.0437 242.9592,-194.6006 236.5975,-192.4147 239.0253,-196.7857 239.0253,-196.7857 239.0253,-196.7857 236.5975,-192.4147 235.0914,-198.9708 234.1696,-188.0437 234.1696,-188.0437"/>
<text text-anchor="middle" x="250.3601" y="-196.7854" font-family="Helvetica,sans-Serif" font-size="10.00" fill="#000000">1</text>
</g>
<!-- A4&#45;&gt;A7 -->
<g id="edge7" class="edge">
<title>A4&#45;&gt;A7</title>
<path fill="none" stroke="#000000" d="M304.0583,-283.9227C305.1036,-273.3094 306.5021,-259.1089 307.9564,-244.3423"/>
<polygon fill="#000000" stroke="#000000" points="308.9685,-234.0659 312.4666,-244.4588 308.4784,-239.0418 307.9883,-244.0178 307.9883,-244.0178 307.9883,-244.0178 308.4784,-239.0418 303.51,-243.5767 308.9685,-234.0659 308.9685,-234.0659"/>
<text text-anchor="middle" x="315.6036" y="-249.9332" font-family="Helvetica,sans-Serif" font-size="10.00" fill="#000000">*</text>
<text text-anchor="middle" x="297.4232" y="-262.0554" font-family="Helvetica,sans-Serif" font-size="10.00" fill="#000000">*</text>
</g>
<!-- A11 -->
<g id="node12" class="node">
<title>A11</title>
<polygon fill="none" stroke="#000000" points="117.121,-46 55.435,-46 55.435,-10 117.121,-10 117.121,-46"/>
<text text-anchor="middle" x="86.278" y="-25" font-family="Helvetica,sans-Serif" font-size="10.00" fill="#000000">Internal</text>
</g>
<!-- A6&#45;&gt;A11 -->
<g id="edge11" class="edge">
<title>A6&#45;&gt;A11</title>
<path fill="none" stroke="#000000" d="M116.7822,-141.9894C109.1803,-113.5823 97.638,-70.4505 91.1493,-46.2032"/>
<polygon fill="none" stroke="#000000" points="113.4218,-142.9714 119.388,-151.7267 120.1838,-141.1618 113.4218,-142.9714"/>
</g>
<!-- A12 -->
<g id="node13" class="node">
<title>A12</title>
<polygon fill="none" stroke="#000000" points="190.0035,-46 134.5525,-46 134.5525,-10 190.0035,-10 190.0035,-46"/>
<text text-anchor="middle" x="162.278" y="-25" font-family="Helvetica,sans-Serif" font-size="10.00" fill="#000000">Public</text>
</g>
<!-- A6&#45;&gt;A12 -->
<g id="edge12" class="edge">
<title>A6&#45;&gt;A12</title>
<path fill="none" stroke="#000000" d="M131.7738,-141.9894C139.3757,-113.5823 150.918,-70.4505 157.4067,-46.2032"/>
<polygon fill="none" stroke="#000000" points="128.3722,-141.1618 129.168,-151.7267 135.1342,-142.9714 128.3722,-141.1618"/>
</g>
<!-- A8 -->
<g id="node9" class="node">
<title>A8</title>
<polygon fill="none" stroke="#000000" points="470.4635,-320 366.0925,-320 366.0925,-284 470.4635,-284 470.4635,-320"/>
<text text-anchor="middle" x="418.278" y="-305" font-family="Helvetica,sans-Serif" font-size="10.00" fill="#000000">Category Interest</text>
<text text-anchor="middle" x="418.278" y="-293" font-family="Helvetica,sans-Serif" font-size="10.00" fill="#000000">Tag</text>
</g>
<!-- A8&#45;&gt;A7 -->
<g id="edge8" class="edge">
<title>A8&#45;&gt;A7</title>
<path fill="none" stroke="#000000" d="M397.9499,-275.9484C389.0628,-264.5592 378.1904,-250.6256 367.2875,-236.653"/>
<polygon fill="#000000" stroke="#000000" points="404.1723,-283.9227 394.4727,-278.8072 401.0963,-279.9808 398.0204,-276.0389 398.0204,-276.0389 398.0204,-276.0389 401.0963,-279.9808 401.5682,-273.2705 404.1723,-283.9227 404.1723,-283.9227"/>
<polygon fill="#000000" stroke="#000000" points="360.8793,-228.4405 370.5789,-233.5561 363.9552,-232.3825 367.0312,-236.3244 367.0312,-236.3244 367.0312,-236.3244 363.9552,-232.3825 363.4834,-239.0927 360.8793,-228.4405 360.8793,-228.4405"/>
</g>
<!-- A9 -->
<g id="node10" class="node">
<title>A9</title>
<polygon fill="none" stroke="#000000" points="490.1145,-198 378.4415,-198 378.4415,-142 490.1145,-142 490.1145,-198"/>
<text text-anchor="middle" x="434.278" y="-185" font-family="Helvetica,sans-Serif" font-size="10.00" fill="#000000">Miner</text>
<text text-anchor="middle" x="434.278" y="-173" font-family="Helvetica,sans-Serif" font-size="10.00" fill="#000000">Proof of</text>
<text text-anchor="middle" x="434.278" y="-161" font-family="Helvetica,sans-Serif" font-size="10.00" fill="#000000">Work/Performance</text>
<text text-anchor="middle" x="434.278" y="-149" font-family="Helvetica,sans-Serif" font-size="10.00" fill="#000000">Project Tests</text>
</g>
<!-- A8&#45;&gt;A9 -->
<g id="edge9" class="edge">
<title>A8&#45;&gt;A9</title>
<path fill="none" stroke="#000000" d="M421.6977,-273.7872C424.0006,-254.7887 427.067,-229.4907 429.5959,-208.6275"/>
<polygon fill="#000000" stroke="#000000" points="420.4692,-283.9227 417.2053,-273.4539 421.0709,-278.9591 421.6726,-273.9954 421.6726,-273.9954 421.6726,-273.9954 421.0709,-278.9591 426.1399,-274.5369 420.4692,-283.9227 420.4692,-283.9227"/>
<polygon fill="#000000" stroke="#000000" points="430.8253,-198.4846 434.0892,-208.9535 430.2236,-203.4483 429.6219,-208.4119 429.6219,-208.4119 429.6219,-208.4119 430.2236,-203.4483 425.1546,-207.8704 430.8253,-198.4846 430.8253,-198.4846"/>
</g>
<!-- A10 -->
<g id="node11" class="node">
<title>A10</title>
<polygon fill="none" stroke="#000000" points="504.5252,-56 364.0308,-56 364.0308,0 504.5252,0 504.5252,-56"/>
<text text-anchor="middle" x="434.278" y="-43" font-family="Helvetica,sans-Serif" font-size="10.00" fill="#000000">Ranked Innovations</text>
<text text-anchor="middle" x="434.278" y="-19" font-family="Helvetica,sans-Serif" font-size="10.00" fill="#000000">Global&#45;National&#45;Social</text>
<text text-anchor="middle" x="434.278" y="-7" font-family="Helvetica,sans-Serif" font-size="10.00" fill="#000000">Realtime Patenting Pools</text>
</g>
<!-- A9&#45;&gt;A10 -->
<g id="edge10" class="edge">
<title>A9&#45;&gt;A10</title>
<path fill="none" stroke="#000000" d="M434.278,-131.873C434.278,-111.6694 434.278,-86.9087 434.278,-66.6302"/>
<polygon fill="#000000" stroke="#000000" points="434.278,-141.9454 429.7781,-131.9453 434.278,-136.9454 434.2781,-131.9454 434.2781,-131.9454 434.2781,-131.9454 434.278,-136.9454 438.7781,-131.9454 434.278,-141.9454 434.278,-141.9454"/>
<polygon fill="#000000" stroke="#000000" points="434.278,-56.4824 438.7781,-66.4823 434.278,-61.4824 434.2781,-66.4824 434.2781,-66.4824 434.2781,-66.4824 434.278,-61.4824 429.7781,-66.4824 434.278,-56.4824 434.278,-56.4824"/>
</g>
<!-- A13 -->
<g id="node14" class="node">
<title>A13</title>
<polygon fill="#fff8dc" stroke="#000000" points="475.8495,-426 308.7065,-426 308.7065,-370 481.8495,-370 481.8495,-420 475.8495,-426"/>
<polyline fill="none" stroke="#000000" points="475.8495,-426 475.8495,-420 "/>
<polyline fill="none" stroke="#000000" points="481.8495,-420 475.8495,-420 "/>
<text text-anchor="middle" x="395.278" y="-413" font-family="Helvetica,sans-Serif" font-size="10.00" fill="#000000">Social XP Delivery =</text>
<text text-anchor="middle" x="395.278" y="-401" font-family="Helvetica,sans-Serif" font-size="10.00" fill="#000000">Extreme Social</text>
<text text-anchor="middle" x="395.278" y="-389" font-family="Helvetica,sans-Serif" font-size="10.00" fill="#000000">Programming/Engineering (XSP)</text>
<text text-anchor="middle" x="395.278" y="-377" font-family="Helvetica,sans-Serif" font-size="10.00" fill="#000000">Innovation Rendering</text>
</g>
</g>
</svg>
