<?xml version="1.0" encoding="UTF-8" standalone="no"?>
<!DOCTYPE svg PUBLIC "-//W3C//DTD SVG 1.1//EN"
 "http://www.w3.org/Graphics/SVG/1.1/DTD/svg11.dtd">
<!-- Generated by graphviz version 2.40.1 (20161225.0304)
 -->
<!-- Title: G Pages: 1 -->
<svg width="389pt" height="402pt"
 viewBox="0.00 0.00 388.68 402.00" xmlns="http://www.w3.org/2000/svg" xmlns:xlink="http://www.w3.org/1999/xlink">
<g id="graph0" class="graph" transform="scale(1 1) rotate(0) translate(4 398)">
<title>G</title>
<polygon fill="#ffffff" stroke="transparent" points="-4,4 -4,-398 384.6765,-398 384.6765,4 -4,4"/>
<!-- A0 -->
<g id="node1" class="node">
<title>A0</title>
<polygon fill="#fff8dc" stroke="#000000" points="144.4651,-390 26.2029,-390 26.2029,-354 150.4651,-354 150.4651,-384 144.4651,-390"/>
<polyline fill="none" stroke="#000000" points="144.4651,-390 144.4651,-384 "/>
<polyline fill="none" stroke="#000000" points="150.4651,-384 144.4651,-384 "/>
<text text-anchor="middle" x="88.334" y="-375" font-family="Helvetica,sans-Serif" font-size="10.00" fill="#000000">Frontend Bank Wallet</text>
<text text-anchor="middle" x="88.334" y="-363" font-family="Helvetica,sans-Serif" font-size="10.00" fill="#000000">Classes</text>
</g>
<!-- A1 -->
<g id="node2" class="node">
<title>A1</title>
<polygon fill="none" stroke="#000000" points="222.334,-390 168.334,-390 168.334,-354 222.334,-354 222.334,-390"/>
<text text-anchor="middle" x="195.334" y="-369" font-family="Helvetica,sans-Serif" font-size="10.00" fill="#000000">User</text>
</g>
<!-- A2 -->
<g id="node3" class="node">
<title>A2</title>
<polygon fill="none" stroke="#000000" points="186.334,-300 132.334,-300 132.334,-264 186.334,-264 186.334,-300"/>
<text text-anchor="middle" x="159.334" y="-279" font-family="Helvetica,sans-Serif" font-size="10.00" fill="#000000">Job</text>
</g>
<!-- A1&#45;&gt;A2 -->
<g id="edge1" class="edge">
<title>A1&#45;&gt;A2</title>
<path fill="none" stroke="#000000" d="M183.4499,-342.2897C179.2333,-331.7482 174.5085,-319.9363 170.366,-309.58"/>
<polygon fill="none" stroke="#000000" points="183.5921,-342.6454 189.5344,-346.7307 188.0489,-353.7872 182.1066,-349.7019 183.5921,-342.6454"/>
<polygon fill="#000000" stroke="#000000" points="166.6083,-300.1858 174.5004,-307.7992 168.4653,-304.8281 170.3223,-309.4705 170.3223,-309.4705 170.3223,-309.4705 168.4653,-304.8281 166.1441,-311.1418 166.6083,-300.1858 166.6083,-300.1858"/>
<text text-anchor="middle" x="181.188" y="-310.8763" font-family="Helvetica,sans-Serif" font-size="10.00" fill="#000000">projects 0..*</text>
<text text-anchor="middle" x="173.4692" y="-337.0966" font-family="Helvetica,sans-Serif" font-size="10.00" fill="#000000">1</text>
</g>
<!-- A3 -->
<g id="node4" class="node">
<title>A3</title>
<polygon fill="none" stroke="#000000" points="258.334,-300 204.334,-300 204.334,-264 258.334,-264 258.334,-300"/>
<text text-anchor="middle" x="231.334" y="-279" font-family="Helvetica,sans-Serif" font-size="10.00" fill="#000000">Skill</text>
</g>
<!-- A1&#45;&gt;A3 -->
<g id="edge2" class="edge">
<title>A1&#45;&gt;A3</title>
<path fill="none" stroke="#000000" d="M207.2181,-342.2897C211.4347,-331.7482 216.1595,-319.9363 220.302,-309.58"/>
<polygon fill="none" stroke="#000000" points="207.0759,-342.6454 208.5614,-349.7019 202.6191,-353.7872 201.1336,-346.7307 207.0759,-342.6454"/>
<polygon fill="#000000" stroke="#000000" points="224.0597,-300.1858 224.5239,-311.1418 222.2027,-304.8281 220.3457,-309.4705 220.3457,-309.4705 220.3457,-309.4705 222.2027,-304.8281 216.1676,-307.7992 224.0597,-300.1858 224.0597,-300.1858"/>
<text text-anchor="middle" x="225.1756" y="-317.1546" font-family="Helvetica,sans-Serif" font-size="10.00" fill="#000000">services 0..*</text>
<text text-anchor="middle" x="201.5032" y="-330.8183" font-family="Helvetica,sans-Serif" font-size="10.00" fill="#000000">1</text>
</g>
<!-- A4 -->
<g id="node5" class="node">
<title>A4</title>
<polygon fill="none" stroke="#000000" points="222.334,-168 168.334,-168 168.334,-132 222.334,-132 222.334,-168"/>
<text text-anchor="middle" x="195.334" y="-147" font-family="Helvetica,sans-Serif" font-size="10.00" fill="#000000">Task</text>
</g>
<!-- A2&#45;&gt;A4 -->
<g id="edge3" class="edge">
<title>A2&#45;&gt;A4</title>
<path fill="none" stroke="#000000" d="M167.4514,-252.2361C173.5218,-229.9781 181.7653,-199.7518 187.7127,-177.9447"/>
<polygon fill="#000000" stroke="#000000" points="167.4216,-252.3456 169.702,-259.1866 164.2642,-263.9227 161.9838,-257.0817 167.4216,-252.3456"/>
<polygon fill="#000000" stroke="#000000" points="190.3479,-168.2825 192.058,-179.1142 189.0322,-173.1063 187.7166,-177.9302 187.7166,-177.9302 187.7166,-177.9302 189.0322,-173.1063 183.3752,-176.7461 190.3479,-168.2825 190.3479,-168.2825"/>
<text text-anchor="middle" x="193.7331" y="-184.9939" font-family="Helvetica,sans-Serif" font-size="10.00" fill="#000000">*</text>
<text text-anchor="middle" x="160.8789" y="-241.2113" font-family="Helvetica,sans-Serif" font-size="10.00" fill="#000000">*</text>
</g>
<!-- A5 -->
<g id="node6" class="node">
<title>A5</title>
<polygon fill="none" stroke="#000000" points="150.4661,-168 36.2019,-168 36.2019,-132 150.4661,-132 150.4661,-168"/>
<text text-anchor="middle" x="93.334" y="-147" font-family="Helvetica,sans-Serif" font-size="10.00" fill="#000000">Top Social Solution</text>
</g>
<!-- A2&#45;&gt;A5 -->
<g id="edge4" class="edge">
<title>A2&#45;&gt;A5</title>
<path fill="none" stroke="#000000" d="M150.2954,-263.9227C139.1017,-241.5355 119.9278,-203.1876 106.95,-177.2319"/>
<polygon fill="#000000" stroke="#000000" points="102.4753,-168.2825 110.9724,-175.2143 104.7114,-172.7547 106.9475,-177.2268 106.9475,-177.2268 106.9475,-177.2268 104.7114,-172.7547 102.9225,-179.2393 102.4753,-168.2825 102.4753,-168.2825"/>
<text text-anchor="middle" x="118.1416" y="-177.715" font-family="Helvetica,sans-Serif" font-size="10.00" fill="#000000">1</text>
</g>
<!-- A6 -->
<g id="node7" class="node">
<title>A6</title>
<polygon fill="none" stroke="#000000" points="241.334,-182 241.334,-214 332.334,-214 332.334,-182 241.334,-182"/>
<text text-anchor="start" x="269.607" y="-195" font-family="Helvetica,sans-Serif" font-size="10.00" fill="#000000">Product</text>
<polygon fill="none" stroke="#000000" points="241.334,-150 241.334,-182 332.334,-182 332.334,-150 241.334,-150"/>
<text text-anchor="start" x="251.2745" y="-163" font-family="Helvetica,sans-Serif" font-size="10.00" fill="#000000">UNSPSC_Code</text>
<polygon fill="none" stroke="#000000" points="241.334,-118 241.334,-150 332.334,-150 332.334,-118 241.334,-118"/>
<text text-anchor="start" x="272.672" y="-131" font-family="Helvetica,sans-Serif" font-size="10.00" fill="#000000">price()</text>
<polygon fill="none" stroke="#000000" points="241.334,-86 241.334,-118 332.334,-118 332.334,-86 241.334,-86"/>
<text text-anchor="start" x="265.728" y="-99" font-family="Helvetica,sans-Serif" font-size="10.00" fill="#000000">rc_price()</text>
</g>
<!-- A2&#45;&gt;A6 -->
<g id="edge5" class="edge">
<title>A2&#45;&gt;A6</title>
<path fill="none" stroke="#000000" d="M179.7369,-263.7804C194.4562,-250.3869 214.5985,-231.5398 231.334,-214 232.2158,-213.0759 233.1013,-212.1404 233.9892,-211.1955"/>
<polygon fill="#000000" stroke="#000000" points="240.8237,-203.7971 237.3436,-214.1961 237.4309,-207.4699 234.0381,-211.1426 234.0381,-211.1426 234.0381,-211.1426 237.4309,-207.4699 230.7327,-208.0891 240.8237,-203.7971 240.8237,-203.7971"/>
<text text-anchor="middle" x="234.7327" y="-219.847" font-family="Helvetica,sans-Serif" font-size="10.00" fill="#000000">*</text>
<text text-anchor="middle" x="187.4179" y="-242.3141" font-family="Helvetica,sans-Serif" font-size="10.00" fill="#000000">*</text>
</g>
<!-- A3&#45;&gt;A4 -->
<g id="edge6" class="edge">
<title>A3&#45;&gt;A4</title>
<path fill="none" stroke="#000000" d="M226.4038,-263.9227C220.3786,-241.83 210.1142,-204.194 203.0421,-178.2629"/>
<polygon fill="#000000" stroke="#000000" points="200.3201,-168.2825 207.2928,-176.7461 201.6358,-173.1063 202.9514,-177.9302 202.9514,-177.9302 202.9514,-177.9302 201.6358,-173.1063 198.6099,-179.1142 200.3201,-168.2825 200.3201,-168.2825"/>
<text text-anchor="middle" x="213.244" y="-180.546" font-family="Helvetica,sans-Serif" font-size="10.00" fill="#000000">1</text>
</g>
<!-- A3&#45;&gt;A6 -->
<g id="edge7" class="edge">
<title>A3&#45;&gt;A6</title>
<path fill="none" stroke="#000000" d="M238.8662,-263.9227C243.3735,-253.1053 249.4334,-238.5614 255.7133,-223.4898"/>
<polygon fill="#000000" stroke="#000000" points="259.6399,-214.0659 259.9475,-225.0275 257.7168,-218.6813 255.7937,-223.2967 255.7937,-223.2967 255.7937,-223.2967 257.7168,-218.6813 251.6398,-221.5659 259.6399,-214.0659 259.6399,-214.0659"/>
<text text-anchor="middle" x="260.4705" y="-231.0486" font-family="Helvetica,sans-Serif" font-size="10.00" fill="#000000">*</text>
<text text-anchor="middle" x="238.0356" y="-240.94" font-family="Helvetica,sans-Serif" font-size="10.00" fill="#000000">*</text>
</g>
<!-- A8 -->
<g id="node9" class="node">
<title>A8</title>
<polygon fill="none" stroke="#000000" points="94.5026,-36 .1654,-36 .1654,0 94.5026,0 94.5026,-36"/>
<text text-anchor="middle" x="47.334" y="-15" font-family="Helvetica,sans-Serif" font-size="10.00" fill="#000000">Social Network</text>
</g>
<!-- A5&#45;&gt;A8 -->
<g id="edge9" class="edge">
<title>A5&#45;&gt;A8</title>
<path fill="none" stroke="#000000" d="M83.6884,-122.3213C74.6739,-96.4536 61.4719,-58.5696 53.7052,-36.2825"/>
<polygon fill="none" stroke="#000000" points="80.4385,-123.6315 87.0343,-131.9227 87.0486,-121.3279 80.4385,-123.6315"/>
</g>
<!-- A9 -->
<g id="node10" class="node">
<title>A9</title>
<polygon fill="none" stroke="#000000" points="168.0595,-36 112.6085,-36 112.6085,0 168.0595,0 168.0595,-36"/>
<text text-anchor="middle" x="140.334" y="-15" font-family="Helvetica,sans-Serif" font-size="10.00" fill="#000000">Public</text>
</g>
<!-- A5&#45;&gt;A9 -->
<g id="edge10" class="edge">
<title>A5&#45;&gt;A9</title>
<path fill="none" stroke="#000000" d="M103.1893,-122.3213C112.3998,-96.4536 125.8887,-58.5696 133.8243,-36.2825"/>
<polygon fill="none" stroke="#000000" points="99.8278,-121.3281 99.7706,-131.9227 106.4222,-123.6761 99.8278,-121.3281"/>
</g>
<!-- A7 -->
<g id="node8" class="node">
<title>A7</title>
<polygon fill="none" stroke="#000000" points="380.5195,-300 276.1485,-300 276.1485,-264 380.5195,-264 380.5195,-300"/>
<text text-anchor="middle" x="328.334" y="-285" font-family="Helvetica,sans-Serif" font-size="10.00" fill="#000000">Category Interest</text>
<text text-anchor="middle" x="328.334" y="-273" font-family="Helvetica,sans-Serif" font-size="10.00" fill="#000000">Tag</text>
</g>
<!-- A7&#45;&gt;A6 -->
<g id="edge8" class="edge">
<title>A7&#45;&gt;A6</title>
<path fill="none" stroke="#000000" d="M319.5118,-254.273C316.6119,-245.159 313.2385,-234.5571 309.7754,-223.673"/>
<polygon fill="#000000" stroke="#000000" points="322.5821,-263.9227 315.2619,-255.7579 321.0661,-259.1581 319.55,-254.3935 319.55,-254.3935 319.55,-254.3935 321.0661,-259.1581 323.8382,-253.029 322.5821,-263.9227 322.5821,-263.9227"/>
<polygon fill="#000000" stroke="#000000" points="306.7186,-214.0659 314.0389,-222.2307 308.2347,-218.8305 309.7507,-223.5952 309.7507,-223.5952 309.7507,-223.5952 308.2347,-218.8305 305.4625,-224.9596 306.7186,-214.0659 306.7186,-214.0659"/>
</g>
<!-- A10 -->
<g id="node11" class="node">
<title>A10</title>
<polygon fill="#fff8dc" stroke="#000000" points="352.365,-394 240.303,-394 240.303,-350 358.365,-350 358.365,-388 352.365,-394"/>
<polyline fill="none" stroke="#000000" points="352.365,-394 352.365,-388 "/>
<polyline fill="none" stroke="#000000" points="358.365,-388 352.365,-388 "/>
<text text-anchor="middle" x="299.334" y="-381" font-family="Helvetica,sans-Serif" font-size="10.00" fill="#000000">Top Social Solution</text>
<text text-anchor="middle" x="299.334" y="-369" font-family="Helvetica,sans-Serif" font-size="10.00" fill="#000000">= Fair Social</text>
<text text-anchor="middle" x="299.334" y="-357" font-family="Helvetica,sans-Serif" font-size="10.00" fill="#000000">Engineered Solution</text>
</g>
</g>
</svg>
