<?xml version="1.0" encoding="UTF-8" standalone="no"?>
<!DOCTYPE svg PUBLIC "-//W3C//DTD SVG 1.1//EN"
 "http://www.w3.org/Graphics/SVG/1.1/DTD/svg11.dtd">
<!-- Generated by graphviz version 2.40.1 (20161225.0304)
 -->
<!-- Title: G Pages: 1 -->
<svg width="362pt" height="414pt"
 viewBox="0.00 0.00 362.01 414.00" xmlns="http://www.w3.org/2000/svg" xmlns:xlink="http://www.w3.org/1999/xlink">
<g id="graph0" class="graph" transform="scale(1 1) rotate(0) translate(4 410)">
<title>G</title>
<polygon fill="#ffffff" stroke="transparent" points="-4,4 -4,-410 358.0135,-410 358.0135,4 -4,4"/>
<!-- A0 -->
<g id="node1" class="node">
<title>A0</title>
<polygon fill="#fff8dc" stroke="#000000" points="117.6369,-396 5.7051,-396 5.7051,-360 123.6369,-360 123.6369,-390 117.6369,-396"/>
<polyline fill="none" stroke="#000000" points="117.6369,-396 117.6369,-390 "/>
<polyline fill="none" stroke="#000000" points="123.6369,-390 117.6369,-390 "/>
<text text-anchor="middle" x="64.671" y="-381" font-family="Helvetica,sans-Serif" font-size="10.00" fill="#000000">Backend XSP Miner</text>
<text text-anchor="middle" x="64.671" y="-369" font-family="Helvetica,sans-Serif" font-size="10.00" fill="#000000">Classes</text>
</g>
<!-- A1 -->
<g id="node2" class="node">
<title>A1</title>
<polygon fill="none" stroke="#000000" points="195.671,-396 141.671,-396 141.671,-360 195.671,-360 195.671,-396"/>
<text text-anchor="middle" x="168.671" y="-375" font-family="Helvetica,sans-Serif" font-size="10.00" fill="#000000">User</text>
</g>
<!-- A2 -->
<g id="node3" class="node">
<title>A2</title>
<polygon fill="none" stroke="#000000" points="159.671,-300 105.671,-300 105.671,-264 159.671,-264 159.671,-300"/>
<text text-anchor="middle" x="132.671" y="-279" font-family="Helvetica,sans-Serif" font-size="10.00" fill="#000000">Job</text>
</g>
<!-- A1&#45;&gt;A2 -->
<g id="edge1" class="edge">
<title>A1&#45;&gt;A2</title>
<path fill="none" stroke="#000000" d="M157.6652,-348.6512C153.0482,-336.3393 147.7043,-322.0887 143.1457,-309.9325"/>
<polygon fill="none" stroke="#000000" points="157.6861,-348.7072 163.5382,-352.9206 161.8997,-359.9431 156.0476,-355.7297 157.6861,-348.7072"/>
<polygon fill="#000000" stroke="#000000" points="139.5344,-300.3023 147.2591,-308.0855 141.29,-304.9839 143.0457,-309.6656 143.0457,-309.6656 143.0457,-309.6656 141.29,-304.9839 138.8322,-311.2457 139.5344,-300.3023 139.5344,-300.3023"/>
<text text-anchor="middle" x="153.8131" y="-311.3065" font-family="Helvetica,sans-Serif" font-size="10.00" fill="#000000">projects 0..*</text>
<text text-anchor="middle" x="147.621" y="-342.9389" font-family="Helvetica,sans-Serif" font-size="10.00" fill="#000000">1</text>
</g>
<!-- A3 -->
<g id="node4" class="node">
<title>A3</title>
<polygon fill="none" stroke="#000000" points="231.671,-300 177.671,-300 177.671,-264 231.671,-264 231.671,-300"/>
<text text-anchor="middle" x="204.671" y="-279" font-family="Helvetica,sans-Serif" font-size="10.00" fill="#000000">Skill</text>
</g>
<!-- A1&#45;&gt;A3 -->
<g id="edge2" class="edge">
<title>A1&#45;&gt;A3</title>
<path fill="none" stroke="#000000" d="M179.6768,-348.6512C184.2938,-336.3393 189.6377,-322.0887 194.1963,-309.9325"/>
<polygon fill="none" stroke="#000000" points="179.6559,-348.7072 181.2944,-355.7297 175.4423,-359.9431 173.8038,-352.9206 179.6559,-348.7072"/>
<polygon fill="#000000" stroke="#000000" points="197.8076,-300.3023 198.5098,-311.2457 196.052,-304.9839 194.2963,-309.6656 194.2963,-309.6656 194.2963,-309.6656 196.052,-304.9839 190.0829,-308.0855 197.8076,-300.3023 197.8076,-300.3023"/>
<text text-anchor="middle" x="199.3573" y="-317.2422" font-family="Helvetica,sans-Serif" font-size="10.00" fill="#000000">services 0..*</text>
<text text-anchor="middle" x="173.8926" y="-337.0033" font-family="Helvetica,sans-Serif" font-size="10.00" fill="#000000">1</text>
</g>
<!-- A4 -->
<g id="node5" class="node">
<title>A4</title>
<polygon fill="none" stroke="#000000" points="195.671,-168 141.671,-168 141.671,-132 195.671,-132 195.671,-168"/>
<text text-anchor="middle" x="168.671" y="-147" font-family="Helvetica,sans-Serif" font-size="10.00" fill="#000000">Task</text>
</g>
<!-- A2&#45;&gt;A4 -->
<g id="edge3" class="edge">
<title>A2&#45;&gt;A4</title>
<path fill="none" stroke="#000000" d="M140.7884,-252.2361C146.8588,-229.9781 155.1023,-199.7518 161.0497,-177.9447"/>
<polygon fill="#000000" stroke="#000000" points="140.7586,-252.3456 143.039,-259.1866 137.6012,-263.9227 135.3208,-257.0817 140.7586,-252.3456"/>
<polygon fill="#000000" stroke="#000000" points="163.6849,-168.2825 165.395,-179.1142 162.3692,-173.1063 161.0536,-177.9302 161.0536,-177.9302 161.0536,-177.9302 162.3692,-173.1063 156.7122,-176.7461 163.6849,-168.2825 163.6849,-168.2825"/>
<text text-anchor="middle" x="167.0701" y="-184.9939" font-family="Helvetica,sans-Serif" font-size="10.00" fill="#000000">*</text>
<text text-anchor="middle" x="134.2159" y="-241.2113" font-family="Helvetica,sans-Serif" font-size="10.00" fill="#000000">*</text>
</g>
<!-- A5 -->
<g id="node6" class="node">
<title>A5</title>
<polygon fill="none" stroke="#000000" points="123.8962,-168 13.4458,-168 13.4458,-132 123.8962,-132 123.8962,-168"/>
<text text-anchor="middle" x="68.671" y="-147" font-family="Helvetica,sans-Serif" font-size="10.00" fill="#000000">Social XP Delivery</text>
</g>
<!-- A2&#45;&gt;A5 -->
<g id="edge4" class="edge">
<title>A2&#45;&gt;A5</title>
<path fill="none" stroke="#000000" d="M123.9063,-263.9227C113.0994,-241.6337 94.6219,-203.5237 82.0403,-177.5742"/>
<polygon fill="#000000" stroke="#000000" points="77.5353,-168.2825 85.9472,-175.3174 79.7166,-172.7816 81.898,-177.2807 81.898,-177.2807 81.898,-177.2807 79.7166,-172.7816 77.8489,-179.2439 77.5353,-168.2825 77.5353,-168.2825"/>
<text text-anchor="middle" x="93.0488" y="-177.9052" font-family="Helvetica,sans-Serif" font-size="10.00" fill="#000000">1</text>
</g>
<!-- A6 -->
<g id="node7" class="node">
<title>A6</title>
<polygon fill="none" stroke="#000000" points="214.671,-182 214.671,-214 305.671,-214 305.671,-182 214.671,-182"/>
<text text-anchor="start" x="242.944" y="-195" font-family="Helvetica,sans-Serif" font-size="10.00" fill="#000000">Product</text>
<polygon fill="none" stroke="#000000" points="214.671,-150 214.671,-182 305.671,-182 305.671,-150 214.671,-150"/>
<text text-anchor="start" x="224.6115" y="-163" font-family="Helvetica,sans-Serif" font-size="10.00" fill="#000000">UNSPSC_Code</text>
<polygon fill="none" stroke="#000000" points="214.671,-118 214.671,-150 305.671,-150 305.671,-118 214.671,-118"/>
<text text-anchor="start" x="246.009" y="-131" font-family="Helvetica,sans-Serif" font-size="10.00" fill="#000000">price()</text>
<polygon fill="none" stroke="#000000" points="214.671,-86 214.671,-118 305.671,-118 305.671,-86 214.671,-86"/>
<text text-anchor="start" x="239.065" y="-99" font-family="Helvetica,sans-Serif" font-size="10.00" fill="#000000">rc_price()</text>
</g>
<!-- A2&#45;&gt;A6 -->
<g id="edge5" class="edge">
<title>A2&#45;&gt;A6</title>
<path fill="none" stroke="#000000" d="M153.0739,-263.7804C167.7932,-250.3869 187.9355,-231.5398 204.671,-214 205.5528,-213.0759 206.4383,-212.1404 207.3262,-211.1955"/>
<polygon fill="#000000" stroke="#000000" points="214.1607,-203.7971 210.6806,-214.1961 210.7679,-207.4699 207.3751,-211.1426 207.3751,-211.1426 207.3751,-211.1426 210.7679,-207.4699 204.0697,-208.0891 214.1607,-203.7971 214.1607,-203.7971"/>
<text text-anchor="middle" x="208.0697" y="-219.847" font-family="Helvetica,sans-Serif" font-size="10.00" fill="#000000">*</text>
<text text-anchor="middle" x="160.7549" y="-242.3141" font-family="Helvetica,sans-Serif" font-size="10.00" fill="#000000">*</text>
</g>
<!-- A3&#45;&gt;A4 -->
<g id="edge6" class="edge">
<title>A3&#45;&gt;A4</title>
<path fill="none" stroke="#000000" d="M199.7408,-263.9227C193.7156,-241.83 183.4512,-204.194 176.3791,-178.2629"/>
<polygon fill="#000000" stroke="#000000" points="173.6571,-168.2825 180.6298,-176.7461 174.9728,-173.1063 176.2884,-177.9302 176.2884,-177.9302 176.2884,-177.9302 174.9728,-173.1063 171.9469,-179.1142 173.6571,-168.2825 173.6571,-168.2825"/>
<text text-anchor="middle" x="186.581" y="-180.546" font-family="Helvetica,sans-Serif" font-size="10.00" fill="#000000">1</text>
</g>
<!-- A3&#45;&gt;A6 -->
<g id="edge7" class="edge">
<title>A3&#45;&gt;A6</title>
<path fill="none" stroke="#000000" d="M212.2032,-263.9227C216.7105,-253.1053 222.7704,-238.5614 229.0503,-223.4898"/>
<polygon fill="#000000" stroke="#000000" points="232.9769,-214.0659 233.2845,-225.0275 231.0538,-218.6813 229.1307,-223.2967 229.1307,-223.2967 229.1307,-223.2967 231.0538,-218.6813 224.9768,-221.5659 232.9769,-214.0659 232.9769,-214.0659"/>
<text text-anchor="middle" x="233.8075" y="-231.0486" font-family="Helvetica,sans-Serif" font-size="10.00" fill="#000000">*</text>
<text text-anchor="middle" x="211.3726" y="-240.94" font-family="Helvetica,sans-Serif" font-size="10.00" fill="#000000">*</text>
</g>
<!-- A8 -->
<g id="node9" class="node">
<title>A8</title>
<polygon fill="none" stroke="#000000" points="61.514,-36 -.172,-36 -.172,0 61.514,0 61.514,-36"/>
<text text-anchor="middle" x="30.671" y="-15" font-family="Helvetica,sans-Serif" font-size="10.00" fill="#000000">Internal</text>
</g>
<!-- A5&#45;&gt;A8 -->
<g id="edge9" class="edge">
<title>A5&#45;&gt;A8</title>
<path fill="none" stroke="#000000" d="M60.6038,-121.9772C53.1597,-96.1187 42.3218,-58.471 35.9342,-36.2825"/>
<polygon fill="none" stroke="#000000" points="57.337,-123.2813 63.4669,-131.9227 64.0638,-121.3447 57.337,-123.2813"/>
</g>
<!-- A9 -->
<g id="node10" class="node">
<title>A9</title>
<polygon fill="none" stroke="#000000" points="134.3965,-36 78.9455,-36 78.9455,0 134.3965,0 134.3965,-36"/>
<text text-anchor="middle" x="106.671" y="-15" font-family="Helvetica,sans-Serif" font-size="10.00" fill="#000000">Public</text>
</g>
<!-- A5&#45;&gt;A9 -->
<g id="edge10" class="edge">
<title>A5&#45;&gt;A9</title>
<path fill="none" stroke="#000000" d="M76.7382,-121.9772C84.1823,-96.1187 95.0202,-58.471 101.4078,-36.2825"/>
<polygon fill="none" stroke="#000000" points="73.2782,-121.3447 73.8751,-131.9227 80.005,-123.2813 73.2782,-121.3447"/>
</g>
<!-- A7 -->
<g id="node8" class="node">
<title>A7</title>
<polygon fill="none" stroke="#000000" points="353.8565,-300 249.4855,-300 249.4855,-264 353.8565,-264 353.8565,-300"/>
<text text-anchor="middle" x="301.671" y="-285" font-family="Helvetica,sans-Serif" font-size="10.00" fill="#000000">Category Interest</text>
<text text-anchor="middle" x="301.671" y="-273" font-family="Helvetica,sans-Serif" font-size="10.00" fill="#000000">Tag</text>
</g>
<!-- A7&#45;&gt;A6 -->
<g id="edge8" class="edge">
<title>A7&#45;&gt;A6</title>
<path fill="none" stroke="#000000" d="M292.8488,-254.273C289.9489,-245.159 286.5755,-234.5571 283.1124,-223.673"/>
<polygon fill="#000000" stroke="#000000" points="295.9191,-263.9227 288.5989,-255.7579 294.4031,-259.1581 292.887,-254.3935 292.887,-254.3935 292.887,-254.3935 294.4031,-259.1581 297.1752,-253.029 295.9191,-263.9227 295.9191,-263.9227"/>
<polygon fill="#000000" stroke="#000000" points="280.0556,-214.0659 287.3759,-222.2307 281.5717,-218.8305 283.0877,-223.5952 283.0877,-223.5952 283.0877,-223.5952 281.5717,-218.8305 278.7995,-224.9596 280.0556,-214.0659 280.0556,-214.0659"/>
</g>
<!-- A10 -->
<g id="node11" class="node">
<title>A10</title>
<polygon fill="#fff8dc" stroke="#000000" points="326.0141,-406 213.3279,-406 213.3279,-350 332.0141,-350 332.0141,-400 326.0141,-406"/>
<polyline fill="none" stroke="#000000" points="326.0141,-406 326.0141,-400 "/>
<polyline fill="none" stroke="#000000" points="332.0141,-400 326.0141,-400 "/>
<text text-anchor="middle" x="272.671" y="-393" font-family="Helvetica,sans-Serif" font-size="10.00" fill="#000000">Social XP Delivery =</text>
<text text-anchor="middle" x="272.671" y="-381" font-family="Helvetica,sans-Serif" font-size="10.00" fill="#000000">Extreme Social</text>
<text text-anchor="middle" x="272.671" y="-369" font-family="Helvetica,sans-Serif" font-size="10.00" fill="#000000">Programming XSP</text>
<text text-anchor="middle" x="272.671" y="-357" font-family="Helvetica,sans-Serif" font-size="10.00" fill="#000000">rendering</text>
</g>
</g>
</svg>
